<svg id="instagram_logo_footer_linktic" data-name="instagram logo footer linktic" xmlns="http://www.w3.org/2000/svg" width="25.781" height="24.87" viewBox="0 0 25.781 24.87">
  <g id="Grupo_1115" data-name="Grupo 1115" transform="translate(0)">
    <path id="Trazado_1-2_1_" d="M45.236.615H33.744A7.169,7.169,0,0,0,26.6,7.448V18.629a6.965,6.965,0,0,0,7.144,6.833H45.236a7.169,7.169,0,0,0,7.144-6.833V7.448A6.766,6.766,0,0,0,45.236.615Zm4.659,17.7a4.847,4.847,0,0,1-4.97,4.659H33.433a5.306,5.306,0,0,1-4.97-4.659V7.448a4.847,4.847,0,0,1,4.97-4.659H44.925A5.306,5.306,0,0,1,49.9,7.448Z" transform="translate(-26.6 -0.593)" fill="#fff"/>
  </g>
  <path id="Trazado_2_1_" d="M25.912-3.5A6.5,6.5,0,0,0,19.7,3.023a6.5,6.5,0,0,0,6.523,6.212,6.5,6.5,0,0,0,6.212-6.523A6.3,6.3,0,0,0,25.912-3.5Zm0,10.56a4.4,4.4,0,0,1-4.038-4.348,4.4,4.4,0,0,1,4.348-4.038A4.111,4.111,0,0,1,30.26,2.712,4.246,4.246,0,0,1,25.912,7.06Z" transform="translate(-13.177 9.423)" fill="#fff"/>
  <path id="Trazado_3_1_" d="M25.158-4.1a2.355,2.355,0,0,0-1.242.621,1.5,1.5,0,0,0,0,2.174h0a1.879,1.879,0,0,0,2.485,0,1.5,1.5,0,0,0,0-2.174h0C25.78-4.1,25.469-4.1,25.158-4.1Z" transform="translate(-5.28 8.159)" fill="#fff"/>
</svg>
