<svg xmlns="http://www.w3.org/2000/svg" width="18.771" height="18.107" viewBox="0 0 18.771 18.107">
  <g id="ig_rostros" data-name="ig rostros" transform="translate(10089.74 18019.813)">
    <g id="Grupo_2076" data-name="Grupo 2076" transform="translate(-10097 -18027)">
      <g id="instagram-logo_1_" transform="translate(7.26 7.188)">
        <g id="Grupo_1115" data-name="Grupo 1115" transform="translate(0)">
          <path id="Trazado_1-2_1_" d="M40.17.609H31.8a5.22,5.22,0,0,0-5.2,4.976v8.142A5.072,5.072,0,0,0,31.8,18.7H40.17a5.22,5.22,0,0,0,5.2-4.976V5.584A4.927,4.927,0,0,0,40.17.609ZM43.562,13.5a3.529,3.529,0,0,1-3.619,3.392H31.576A3.863,3.863,0,0,1,27.957,13.5V5.584a3.529,3.529,0,0,1,3.619-3.392h8.368a3.863,3.863,0,0,1,3.619,3.392Z" transform="translate(-26.6 -0.593)" fill="#fff"/>
        </g>
        <path id="Trazado_2_1_" d="M24.223-3.5A4.736,4.736,0,0,0,19.7,1.249a4.638,4.638,0,0,0,9.273-.226A4.59,4.59,0,0,0,24.223-3.5Zm0,7.689a3.2,3.2,0,0,1-2.94-3.166,3.2,3.2,0,0,1,3.166-2.94,2.994,2.994,0,0,1,2.94,2.94A3.092,3.092,0,0,1,24.223,4.189Z" transform="translate(-14.951 7.813)" fill="#fff"/>
        <path id="Trazado_3_1_" d="M24.694-4.1a1.715,1.715,0,0,0-.9.452,1.093,1.093,0,0,0,0,1.583h0a1.368,1.368,0,0,0,1.809,0,1.093,1.093,0,0,0,0-1.583h0C25.146-4.1,24.92-4.1,24.694-4.1Z" transform="translate(-10.22 7.056)" fill="#fff"/>
      </g>
    </g>
  </g>
</svg>
