<svg id="ig." xmlns="http://www.w3.org/2000/svg" width="33" height="33" viewBox="0 0 33 33">
  <rect id="Rectángulo_724" data-name="Rectángulo 724" width="33" height="33" fill="#45a4fd"/>
  <g id="instagram-logo_1_" transform="translate(5.247 5.246)">
    <g id="Grupo_1115" data-name="Grupo 1115" transform="translate(0)">
      <path id="Trazado_1-2_1_" d="M43.08.612H32.917A6.34,6.34,0,0,0,26.6,6.655v9.888a6.159,6.159,0,0,0,6.317,6.043H43.08A6.34,6.34,0,0,0,49.4,16.543V6.655A5.984,5.984,0,0,0,43.08.612ZM47.2,16.268a4.286,4.286,0,0,1-4.395,4.12H32.643a4.692,4.692,0,0,1-4.395-4.12V6.655a4.286,4.286,0,0,1,4.395-4.12H42.806A4.692,4.692,0,0,1,47.2,6.655Z" transform="translate(-26.6 -0.593)" fill="#fff"/>
    </g>
    <path id="Trazado_2_1_" d="M25.193-3.5A5.752,5.752,0,0,0,19.7,2.268a5.632,5.632,0,0,0,11.262-.275A5.575,5.575,0,0,0,25.193-3.5Zm0,9.339a3.887,3.887,0,0,1-3.571-3.845,3.887,3.887,0,0,1,3.845-3.571,3.636,3.636,0,0,1,3.571,3.571A3.755,3.755,0,0,1,25.193,5.839Z" transform="translate(-13.932 8.738)" fill="#fff"/>
    <path id="Trazado_3_1_" d="M24.961-4.1a2.082,2.082,0,0,0-1.1.549,1.328,1.328,0,0,0,0,1.923h0a1.661,1.661,0,0,0,2.2,0,1.328,1.328,0,0,0,0-1.923h0C25.51-4.1,25.235-4.1,24.961-4.1Z" transform="translate(-7.382 7.69)" fill="#fff"/>
  </g>
</svg>
