<svg xmlns="http://www.w3.org/2000/svg" xmlns:xlink="http://www.w3.org/1999/xlink" width="187.998" height="86" viewBox="0 0 187.998 86">
  <defs>
    <linearGradient id="linear-gradient" x1="0.301" y1="0.256" x2="0.983" y2="0.862" gradientUnits="objectBoundingBox">
      <stop offset="0" stop-color="#068036"/>
      <stop offset="0.794" stop-color="#7db828"/>
      <stop offset="1" stop-color="#8cbd24"/>
    </linearGradient>
    <linearGradient id="linear-gradient-2" x1="0.454" y1="0.755" x2="0.692" y2="0.044" xlink:href="#linear-gradient"/>
    <clipPath id="clip-path">
      <path id="Trazado_3516" data-name="Trazado 3516" d="M517.6,154.468a.193.193,0,0,1,0-.019,32.915,32.915,0,0,0-3.8-9.631,32.992,32.992,0,0,1,3.8,9.651" transform="translate(-513.8 -144.817)" fill="none"/>
    </clipPath>
    <linearGradient id="linear-gradient-3" x1="165.081" y1="304.577" x2="165.134" y2="304.577" gradientUnits="objectBoundingBox">
      <stop offset="0" stop-color="#4f8030"/>
      <stop offset="0.794" stop-color="#7cb93a"/>
      <stop offset="1" stop-color="#7cb93a"/>
    </linearGradient>
    <linearGradient id="linear-gradient-4" x1="0.272" y1="0.806" x2="0.771" y2="0.278" gradientUnits="objectBoundingBox">
      <stop offset="0" stop-color="#7acbeb"/>
      <stop offset="0.794" stop-color="#578fcb"/>
      <stop offset="1" stop-color="#3973b8"/>
    </linearGradient>
    <linearGradient id="linear-gradient-5" x1="0.899" y1="0.289" x2="-0.132" y2="0.656" gradientUnits="objectBoundingBox">
      <stop offset="0" stop-color="#7acbeb"/>
      <stop offset="0.794" stop-color="#578fcb"/>
      <stop offset="1" stop-color="#3258a3"/>
    </linearGradient>
    <linearGradient id="linear-gradient-6" x1="0.225" y1="-0.439" x2="0.634" y2="0.969" xlink:href="#linear-gradient"/>
    <linearGradient id="linear-gradient-7" x1="0.576" y1="0.538" x2="-0.197" y2="0.315" xlink:href="#linear-gradient"/>
    <clipPath id="clip-path-2">
      <path id="Trazado_3521" data-name="Trazado 3521" d="M516.9,231.909h0c.025,0,.036,0,.03,0s-.007,0-.028,0" transform="translate(-516.893 -231.909)" fill="none"/>
    </clipPath>
    <linearGradient id="linear-gradient-8" x1="32821.164" y1="1258911.25" x2="32836.512" y2="1258911.25" xlink:href="#linear-gradient-3"/>
    <clipPath id="clip-path-3">
      <path id="Trazado_3522" data-name="Trazado 3522" d="M505.823,231.273l.105.021c-.052-.009-.162-.034-.329-.065.092.017.167.032.224.044m-4.551-.138a15.541,15.541,0,0,1,4.327.094,13.071,13.071,0,0,0-2.381-.2c-.564,0-1.213.028-1.946.1" transform="translate(-501.272 -231.033)" fill="none"/>
    </clipPath>
    <linearGradient id="linear-gradient-9" x1="374.209" y1="835.167" x2="374.331" y2="835.167" xlink:href="#linear-gradient-3"/>
    <linearGradient id="linear-gradient-10" x1="0.108" y1="0.891" x2="1.093" y2="0.369" xlink:href="#linear-gradient"/>
  </defs>
  <g id="LOG_LINKTIC_WEB_COLOR" data-name="LOG LINKTIC WEB COLOR" transform="translate(-154.002 -45)">
    <g id="Grupo_1763" data-name="Grupo 1763" transform="translate(-217.27 8.158)">
      <path id="Trazado_3514" data-name="Trazado 3514" d="M499.227,231.833s.007,0,0,0l0,0m-.421-.036a10.024,10.024,0,0,0-7.13,3.071,10,10,0,0,0,1.183,3.409c.07-.1.143-.2.215-.3.094-.133.187-.267.282-.4q.3-.409.61-.792c.117-.145.233-.283.35-.422s.239-.282.359-.418q.229-.262.455-.507c.157-.169.313-.336.467-.494.133-.137.262-.265.392-.393l.275-.268c.214-.2.419-.4.619-.575.079-.072.159-.146.236-.212.12-.106.232-.2.345-.3.077-.066.15-.127.224-.188.162-.134.312-.256.453-.369l.216-.171.215-.164c.075-.056.141-.106.2-.152l.178-.13.155-.109.068-.048.051-.035-.024,0h0c-.022,0-.061-.012-.111-.022-.09,0-.178-.012-.268-.012h-.016" transform="translate(-84.475 -136.781)" fill="url(#linear-gradient)"/>
      <path id="Trazado_3515" data-name="Trazado 3515" d="M443.478,68.994l-.066-.112.066.112m-.066-.112,0,0,0,0M421.147,37.545a21.875,21.875,0,0,0-3.938,3.287,19.567,19.567,0,0,0-3.582,4.971c5.622,5.893,11.49,7.842,17.08,10.911.164.089.325.182.487.274.2.11.392.216.587.329l-.018.02A33.29,33.29,0,0,1,443.409,68.88c-.2-.335-.4-.668-.614-.994a8.587,8.587,0,0,1,.638-1.238c.144-.41.308-.8.479-1.174a30.918,30.918,0,0,0-4.814-6.839l.021-.013c-.142-.152-.289-.3-.433-.445-.12-.124-.238-.249-.36-.371-5.154-5.21-11.149-8.984-14.516-19.726-.283-1.057-.929-1.237-.929-1.237-.584.273-1.733.7-1.733.7" transform="translate(-29.717)" fill="url(#linear-gradient-2)"/>
      <g id="Grupo_1758" data-name="Grupo 1758" transform="translate(413.803 69.061)">
        <g id="Grupo_1757" data-name="Grupo 1757" transform="translate(0 0)" clip-path="url(#clip-path)">
          <rect id="Rectángulo_522" data-name="Rectángulo 522" width="9.134" height="9.826" transform="translate(-4.758 4.021) rotate(-40.2)" fill="url(#linear-gradient-3)"/>
        </g>
      </g>
      <path id="Trazado_3517" data-name="Trazado 3517" d="M378.5,46.473c-.522.463-1.582,1.265-1.582,1.265a23.712,23.712,0,0,0-3.074,4.625,21.541,21.541,0,0,0-1.525,3.7c.29.59.656,1.285,1.093,2.071.353.564.694,1.208,1.131,1.834.419.642.873,1.311,1.389,1.968.486.685,1.066,1.321,1.637,1.991s1.235,1.266,1.869,1.9c.7.55,1.341,1.191,2.077,1.67a17.354,17.354,0,0,0,2.194,1.374,13.3,13.3,0,0,0,2.207,1.021,12.174,12.174,0,0,0,2.089.668l1.829.394,1.443.095,1.268.081-1.269.066-1.468.074-1.9-.182a12.787,12.787,0,0,1-2.231-.436,14.125,14.125,0,0,1-2.426-.8,18.467,18.467,0,0,1-2.48-1.177c-.843-.422-1.594-1.007-2.409-1.514-.747-.585-1.523-1.154-2.221-1.782s-1.39-1.25-1.989-1.914c-.633-.638-1.2-1.291-1.727-1.924-.375-.425-.7-.85-1.01-1.262a21.089,21.089,0,0,0-.107,3.474,21.769,21.769,0,0,0,1.269,6.967c.12.1.235.2.362.312.467.358.95.787,1.508,1.171.547.4,1.132.817,1.764,1.2.616.419,1.3.766,1.978,1.145s1.418.668,2.142,1c.747.24,1.483.574,2.243.742a15.353,15.353,0,0,0,2.249.46,11.838,11.838,0,0,0,2.152.162c.19,0,.379,0,.566,0a6.482,6.482,0,0,0,1.379-.091l1.646-.242,1.231-.372,1.083-.328-1.03.466-1.2.538-1.639.467a11.366,11.366,0,0,1-2,.362,12.52,12.52,0,0,1-2.277.127,16.379,16.379,0,0,1-2.446-.174c-.839-.077-1.655-.319-2.5-.477-.812-.244-1.644-.467-2.429-.763s-1.564-.588-2.279-.946c-.116-.051-.212-.111-.326-.164a23.568,23.568,0,0,0,4.059,4.942,34.157,34.157,0,0,0,5.742,3.888c.2.1.4.219.6.312,0,0,0,.01,0,.01A41.709,41.709,0,0,0,403.82,89.04c6.792.577,11.678,5.473,13.631,11.544a33.13,33.13,0,0,0-15.4-36.489l.018-.02c-.2-.114-.391-.219-.587-.329-.162-.091-.323-.184-.487-.273-6.955-3.82-14.342-5.89-21.147-16-.6-.987-1.313-1-1.345-1h0" transform="translate(0 -6.758)" fill="url(#linear-gradient-4)"/>
      <path id="Trazado_3518" data-name="Trazado 3518" d="M513.844,113.577l.055.04a12.737,12.737,0,0,0-1.889,3.55,8.582,8.582,0,0,0-.638,1.238,33.137,33.137,0,0,1,4.372,25.94h0s12.024-2.849,10.112-19.3a18.854,18.854,0,0,1,3.833-9.5c2-.471,4.574-3.111,4.574-3.111s-1.24-1.889-4.861-2.2a14.628,14.628,0,0,0-6.007-1.385,12.366,12.366,0,0,0-9.552,4.729" transform="translate(-98.294 -50.52)" fill="url(#linear-gradient-5)"/>
      <path id="Trazado_3519" data-name="Trazado 3519" d="M498.5,231.261c.1,0,.189.009.284.011a17.7,17.7,0,0,0-7.466.336,9.244,9.244,0,0,0,.052,2.724,10.024,10.024,0,0,1,7.13-3.071" transform="translate(-84.173 -136.244)" fill="url(#linear-gradient-6)"/>
      <path id="Trazado_3520" data-name="Trazado 3520" d="M486.21,245.5a10.015,10.015,0,0,1-1.183-3.409,10.03,10.03,0,0,0-1.9,11.2,17.938,17.938,0,0,1,3.293-8.094c-.072.1-.144.2-.215.3" transform="translate(-77.827 -144.003)" fill="url(#linear-gradient-7)"/>
      <g id="Grupo_1760" data-name="Grupo 1760" transform="translate(414.726 95.05)">
        <g id="Grupo_1759" data-name="Grupo 1759" clip-path="url(#clip-path-2)">
          <rect id="Rectángulo_523" data-name="Rectángulo 523" width="0.031" height="0.025" transform="matrix(0.8, -0.6, 0.6, 0.8, -0.002, 0.002)" fill="url(#linear-gradient-8)"/>
        </g>
      </g>
      <g id="Grupo_1762" data-name="Grupo 1762" transform="translate(410.064 94.788)">
        <g id="Grupo_1761" data-name="Grupo 1761" transform="translate(0)" clip-path="url(#clip-path-3)">
          <rect id="Rectángulo_524" data-name="Rectángulo 524" width="3.954" height="3.099" transform="matrix(0.8, -0.6, 0.6, 0.8, -0.183, 0.016)" fill="url(#linear-gradient-9)"/>
        </g>
      </g>
      <path id="Trazado_3523" data-name="Trazado 3523" d="M443.922,232.836c-19.9,6.827-14.84,24.01-14.231,25.358a10.143,10.143,0,0,0,4.033,1,13.706,13.706,0,0,1-.219-1.426,14.974,14.974,0,0,1-.062-2.608c.062-.443.078-.885.179-1.313a8.586,8.586,0,0,1,.32-1.237,6.55,6.55,0,0,1,.44-1.1,5.97,5.97,0,0,1,.51-.926l.5-.732.464-.5.4-.431-.342.48-.388.546-.393.772a5.652,5.652,0,0,0-.37.945,6.115,6.115,0,0,0-.277,1.09,7.878,7.878,0,0,0-.146,1.187c-.043.4,0,.822-.006,1.231a14.744,14.744,0,0,0,.863,4.005c2.15-.135,4.273-.694,6.412-1.037-.037-.07-.077-.128-.113-.2a16.847,16.847,0,0,1-1.126-2.693c-.115-.486-.279-.955-.347-1.44a9.6,9.6,0,0,1-.17-1.421,7.381,7.381,0,0,1,.01-1.33,6.678,6.678,0,0,1,.155-1.174c.083-.356.159-.682.227-.97.108-.275.2-.514.281-.713.154-.391.243-.615.243-.615l-.17.64-.193.728c-.033.288-.07.614-.11.969a6.378,6.378,0,0,0-.017,1.142,6.938,6.938,0,0,0,.138,1.26,9.029,9.029,0,0,0,.314,1.311c.115.443.325.869.48,1.3a15.8,15.8,0,0,0,1.339,2.378c.152.231.312.435.47.644a10.847,10.847,0,0,1,6.915,1.365c-3.868-5.039-4.847-9.621-4.36-13.549h0a10.031,10.031,0,0,1,1.9-11.2,10.08,10.08,0,0,1-.128-1.45,10.271,10.271,0,0,1,.076-1.275,25.139,25.139,0,0,1,2.912-.474,28.453,28.453,0,0,0-6.414,1.463" transform="translate(-40.274 -136.483)" fill="url(#linear-gradient-10)"/>
    </g>
    <g id="Grupo_1997" data-name="Grupo 1997">
      <g id="Grupo_1995" data-name="Grupo 1995">
        <path id="Trazado_3543" data-name="Trazado 3543" d="M1068.843-69.139V-86.49h3.265v14.158h8.847v3.193Z" transform="translate(-850.063 179.277)" fill="#989898"/>
        <rect id="Rectángulo_674" data-name="Rectángulo 674" width="3.266" height="17.351" transform="translate(237.893 92.787)" fill="#989898"/>
        <rect id="Rectángulo_675" data-name="Rectángulo 675" width="3.266" height="17.351" transform="translate(311.529 92.787)" fill="#989898"/>
        <path id="Trazado_3544" data-name="Trazado 3544" d="M1143.226-69.807a8.871,8.871,0,0,1-2.754-1.866,8,8,0,0,1-1.866-2.776,8.381,8.381,0,0,1-.7-3.381,8.713,8.713,0,0,1,8.7-8.68,8.654,8.654,0,0,1,3.9.934,8.558,8.558,0,0,1,3.055,2.567l.373.467-2.5,1.841-.35-.465a5.5,5.5,0,0,0-4.478-2.239,5.6,5.6,0,0,0-5.6,5.576,5.62,5.62,0,0,0,5.6,5.62,5.566,5.566,0,0,0,4.478-2.239l.35-.443,2.472,1.818-.373.467a8.545,8.545,0,0,1-3.055,2.567,8.516,8.516,0,0,1-3.872.91,8.825,8.825,0,0,1-3.383-.677" transform="translate(-816.111 179.268)" fill="#989898"/>
        <path id="Trazado_3545" data-name="Trazado 3545" d="M1099.494-82.411v7.277l-7.677-11.356h-3.169v17.351h3.266v-11.38l7.7,11.38h3.143V-82.411Z" transform="translate(-840.326 179.277)" fill="#989898"/>
        <path id="Trazado_3546" data-name="Trazado 3546" d="M1109-78.194l8.815-8.3h-4.679l-6.922,6.506V-86.49h-3.241v17.351h3.241v-6.433L1109-78.2Z" transform="translate(-833.283 179.277)" fill="#454545"/>
        <path id="Trazado_3547" data-name="Trazado 3547" d="M1110.771-80.628l-2.45,2.28,4.508,6.327h4.07Z" transform="translate(-830.656 182.158)" fill="#454545"/>
        <path id="Trazado_3548" data-name="Trazado 3548" d="M1122.843-69.164V-83.3h-4.265v-3.217h11.795V-83.3h-4.264v14.134Z" transform="translate(-825.613 179.266)" fill="#989898"/>
      </g>
      <text id="Evolucionamos_contigo_" data-name="Evolucionamos contigo " transform="translate(218 128)" fill="#989898" font-size="10" font-family="Montserrat-Medium, Montserrat" font-weight="500" letter-spacing="0.006em"><tspan x="0" y="0">Evolucionamos contigo </tspan></text>
    </g>
  </g>
</svg>
