<svg xmlns="http://www.w3.org/2000/svg" width="57.186" height="65.25" viewBox="0 0 57.186 65.25">
  <g id="Marketing" transform="translate(24929 15781.001)">
    <g id="Grupo_2436" data-name="Grupo 2436" transform="translate(-24937 -15781)">
      <g id="Grupo_1650" data-name="Grupo 1650" transform="translate(8)">
        <g id="Grupo_1331" data-name="Grupo 1331">
          <path id="Trazado_3413" data-name="Trazado 3413" d="M-1456.667,2203.735a3.094,3.094,0,0,1-4.37,0h0l-5.578-5.578a3.092,3.092,0,0,1,0-4.369l10.552-10.551,9.95,9.949-.789.788Z" transform="translate(1467.519 -2147.657)" fill="#45a4fd" opacity="0.12"/>
          <path id="Trazado_3414" data-name="Trazado 3414" d="M-1436.894,2207.874a3.085,3.085,0,0,1,0,4.362,3.085,3.085,0,0,1-4.362,0l-10.532-10.529,4.362-4.362Z" transform="translate(1467.257 -2147.891)" fill="#45a4fd" opacity="0.12"/>
          <path id="Trazado_3415" data-name="Trazado 3415" d="M-1439.583,2193.863a3.088,3.088,0,0,1,0,4.362l-2.181,2.181-4.362-4.362.936-.937c.591-.59,1.475-1.475,2.793-2.6l.787-.67Z" transform="translate(1467.163 -2147.8)" fill="#45a4fd" opacity="0.12"/>
          <path id="Trazado_3416" data-name="Trazado 3416" d="M-1426.045,2181.592a43.749,43.749,0,0,0-17.836,9.365l-.788.68-10-10.006.682-.788a43.756,43.756,0,0,0,9.363-17.836l.493-1.893,19.985,19.985Z" transform="translate(1467.305 -2147.289)" fill="#45a4fd" opacity="0.12"/>
          <path id="Trazado_3417" data-name="Trazado 3417" d="M-1417.248,2180.927h0a3.093,3.093,0,0,1-4.37,0l-22.31-22.31a3.091,3.091,0,0,1,.056-4.37,3.09,3.09,0,0,1,4.313,0l22.31,22.31a3.093,3.093,0,0,1,0,4.37Z" transform="translate(1467.141 -2147.161)" fill="#45a4fd" opacity="0.12"/>
          <g id="Grupo_1045" data-name="Grupo 1045" transform="translate(0.303)">
            <g id="Grupo_977" data-name="Grupo 977">
              <g id="Grupo_961" data-name="Grupo 961">
                <g id="Grupo_961-2" data-name="Grupo 961-2">
                  <path id="Trazado_723" data-name="Trazado 723" d="M-1436.761,2151.012a4.79,4.79,0,0,0-6.776.007,4.79,4.79,0,0,0-.584,6.059l.262.386-.122.613a42.329,42.329,0,0,1-11.611,21.694l-10.215,10.216a4.786,4.786,0,0,0,0,6.77l0,0,5.569,5.568a4.786,4.786,0,0,0,6.769.005l.005-.005,2.181-2.181,10.533,10.533a4.79,4.79,0,0,0,6.773-.094,4.789,4.789,0,0,0,0-6.679l-4.965-4.965,2.181-2.181a4.786,4.786,0,0,0,.006-6.769l-.006-.005-1.886-1.886,1.089-.762a42.14,42.14,0,0,1,16-6.835l.614-.123.386.261a4.79,4.79,0,0,0,6.65-1.3,4.789,4.789,0,0,0-.584-6.06Zm-17.91,50.113a3.089,3.089,0,0,1-4.362,0h0l-5.568-5.568a3.088,3.088,0,0,1,0-4.362l10.534-10.533,9.932,9.932-.787.787Zm19.488,3.989a3.085,3.085,0,0,1,0,4.363,3.085,3.085,0,0,1-4.362,0l-10.532-10.529,4.362-4.362Zm-2.784-13.92a3.088,3.088,0,0,1,0,4.362l-2.181,2.181-4.362-4.362.936-.937c.591-.59,1.475-1.475,2.793-2.6l.787-.669Zm13.654-11.808a43.671,43.671,0,0,0-17.805,9.348l-.787.679-9.988-9.988.681-.787a43.676,43.676,0,0,0,9.346-17.805l.492-1.89,19.953,19.952Zm8.619-.535h0a3.088,3.088,0,0,1-4.363,0l-22.273-22.273a3.084,3.084,0,0,1,.056-4.362,3.084,3.084,0,0,1,4.306,0l22.272,22.272a3.089,3.089,0,0,1,0,4.363Z" transform="translate(1467.21 -2147.098)" fill="#45a4fd"/>
                  <path id="Trazado_724" data-name="Trazado 724" d="M-1453.907,2190.416a.841.841,0,0,0-.6.25l-2.784,2.784a.852.852,0,0,0-.014,1.206.853.853,0,0,0,1.206.013l.014-.013,2.784-2.784a.853.853,0,0,0,0-1.206A.851.851,0,0,0-1453.907,2190.416Z" transform="translate(1467.05 -2147.776)" fill="#45a4fd"/>
                  <path id="Trazado_725" data-name="Trazado 725" d="M-1426.263,2152.7a.854.854,0,0,0,.852-.853v-3.933a.852.852,0,0,0-.842-.863.852.852,0,0,0-.862.843v3.953A.854.854,0,0,0-1426.263,2152.7Z" transform="translate(1466.544 -2147.056)" fill="#45a4fd"/>
                  <path id="Trazado_726" data-name="Trazado 726" d="M-1410.317,2163.077h-3.933a.852.852,0,0,0-.85.854.853.853,0,0,0,.85.851h3.933a.853.853,0,0,0,.856-.851.852.852,0,0,0-.851-.854Z" transform="translate(1466.344 -2147.322)" fill="#45a4fd"/>
                  <path id="Trazado_727" data-name="Trazado 727" d="M-1418.256,2156.708a.851.851,0,0,0,.6-.25l3.934-3.934a.853.853,0,0,0,.014-1.206.852.852,0,0,0-1.206-.015l-.014.015-3.933,3.934a.852.852,0,0,0,0,1.206A.854.854,0,0,0-1418.256,2156.708Z" transform="translate(1466.411 -2147.123)" fill="#45a4fd"/>
                </g>
              </g>
            </g>
          </g>
        </g>
      </g>
    </g>
  </g>
</svg>
