<svg xmlns="http://www.w3.org/2000/svg" width="68.536" height="73.023" viewBox="0 0 68.536 73.023">
  <g id="campa침as_publicitarias" data-name="campa침as publicitarias" transform="translate(-530.801 -208)">
    <rect id="Rect치ngulo_514" data-name="Rect치ngulo 514" width="3.615" height="10.807" transform="translate(566.827 229.085)" fill="#47ad19" opacity="0.12" style="isolation: isolate"/>
    <path id="Trazado_3507" data-name="Trazado 3507" d="M764.465,279.459a.627.627,0,0,1,.626.626c0,.2,0,.756-.005,1.5-.016,4.135-.026,8.052,0,8.7a.627.627,0,0,1-.625.658H754.3a5.327,5.327,0,0,1-3.341-1.183l-.45-.365v-8.349l4.378-4.954a8.426,8.426,0,0,0,2.108-5.577.06.06,0,0,1,.11-.029,6.2,6.2,0,0,1,.327,5.457l-.844,2a1.07,1.07,0,0,0,.982,1.486Z" transform="translate(-177.923 -50.588)" fill="#47ad19" opacity="0.12" style="isolation: isolate"/>
    <path id="Trazado_3508" data-name="Trazado 3508" d="M695.205,504.623c0,1.6-1.06,2.781-4.008,4.4-2.947-1.622-4.007-2.8-4.007-4.4a1.83,1.83,0,0,1,1.333-1.937,1.6,1.6,0,0,1,.377-.045,1.477,1.477,0,0,1,1.347.862,1.069,1.069,0,0,0,1.919-.039,1.391,1.391,0,0,1,1.641-.747,1.809,1.809,0,0,1,1.4,1.906Z" transform="translate(-126.65 -238.611)" fill="#47ad19" opacity="0.12" style="isolation: isolate"/>
    <path id="Trazado_3509" data-name="Trazado 3509" d="M602.252,396.68h2.581l-.431,2.609H601.82Z" transform="translate(-57.514 -152.8)" fill="#47ad19" opacity="0.12" style="isolation: isolate"/>
    <g id="Grupo_1753" data-name="Grupo 1753" transform="translate(530.801 208)">
      <g id="Grupo_1752" data-name="Grupo 1752">
        <path id="Trazado_3510" data-name="Trazado 3510" d="M591.316,208h-3.14a1.07,1.07,0,0,0,0,2.139h3.14A5.877,5.877,0,0,1,597.2,216v24.759a5.876,5.876,0,0,1-5.88,5.859h-3.561a1.072,1.072,0,0,0-.65.22l-6.534,5v-4.149a1.07,1.07,0,0,0-1.07-1.07h-13.02a5.852,5.852,0,0,1-3-.816V233.791a6.528,6.528,0,0,0-2.885-5.413V216a5.877,5.877,0,0,1,5.88-5.859h14.991a1.07,1.07,0,0,0,0-2.139H566.481a8.019,8.019,0,0,0-8.02,8v11.439a6.576,6.576,0,0,0-1.525-.18H537.351a6.55,6.55,0,0,0-6.55,6.534v2.31a1.07,1.07,0,0,0,2.139,0v-2.31a4.408,4.408,0,0,1,4.411-4.395h19.585a4.408,4.408,0,0,1,4.411,4.395v12.435a1.057,1.057,0,0,0,0,.284v6.806c0,.134-.008.268-.02.4h-2.206a4.964,4.964,0,0,0-4.878,4.061,1.056,1.056,0,0,0-.277.154l-4.785,3.695v-2.848a1.07,1.07,0,0,0-1.07-1.07H537.351a4.408,4.408,0,0,1-4.411-4.394v-10.8a1.07,1.07,0,0,0-2.139,0v10.8a6.55,6.55,0,0,0,6.55,6.534h9.69v3.956a1.086,1.086,0,0,0,1.723.847l5.4-4.167V272.52a4.959,4.959,0,0,0,4.959,4.947h6.565v2.5a1.086,1.086,0,0,0,1.723.847l4.33-3.343h1.279a4.959,4.959,0,0,0,4.96-4.947v-1.9a1.071,1.071,0,0,0-2.14,0v1.9a2.817,2.817,0,0,1-2.82,2.808h-1.644a1.071,1.071,0,0,0-.654.223l-2.9,2.235V276.4a1.07,1.07,0,0,0-1.07-1.07h-7.635a2.817,2.817,0,0,1-2.82-2.808V258.665a2.817,2.817,0,0,1,2.82-2.808h13.9a2.817,2.817,0,0,1,2.82,2.808v5.252a1.071,1.071,0,0,0,2.14,0v-5.252a4.959,4.959,0,0,0-4.96-4.947h-9.544c.008-.134.012-5.537.012-5.537a8.019,8.019,0,0,0,3,.576h11.951V254a1.086,1.086,0,0,0,1.72.85l7.966-6.093h3.2a8.019,8.019,0,0,0,8.02-8V216a8.019,8.019,0,0,0-8.02-8Zm0,0" transform="translate(-530.801 -208)" fill="#47ad19"/>
      </g>
      <path id="Trazado_3511" data-name="Trazado 3511" d="M733.976,249.029a2.23,2.23,0,0,0-2.743,2.13,6.281,6.281,0,0,1-1.573,4.161l-2.948,3.336a1.067,1.067,0,0,0-.9-.487h-5.755a1.07,1.07,0,0,0-1.07,1.07v12.947a1.07,1.07,0,0,0,1.07,1.07h5.755a1.069,1.069,0,0,0,.972-.625,7.477,7.477,0,0,0,3.889,1.1h10.169a2.8,2.8,0,0,0,2.762-2.9c-.032-.686,0-9.9,0-10.108a2.768,2.768,0,0,0-2.763-2.766l-5.288-.016.219-.518a8.353,8.353,0,0,0-.44-7.351,2.179,2.179,0,0,0-1.365-1.039Zm-9.229,22.087h-3.615V260.309h3.615Zm16.1-11.022a.627.627,0,0,1,.626.626c0,.2,0,.756-.005,1.5-.016,4.135-.026,8.052,0,8.7a.627.627,0,0,1-.625.658H730.677a5.327,5.327,0,0,1-3.341-1.183l-.45-.365V261.69l4.378-4.954a8.426,8.426,0,0,0,2.108-5.577.06.06,0,0,1,.11-.029,6.2,6.2,0,0,1,.327,5.457l-.844,2a1.07,1.07,0,0,0,.982,1.487Zm0,0" transform="translate(-683.205 -241.125)" fill="#47ad19"/>
      <path id="Trazado_3512" data-name="Trazado 3512" d="M574.418,362.7a1.07,1.07,0,0,0,0,2.139h3.153l-.589,3.563a1.069,1.069,0,0,0,.881,1.23,1.092,1.092,0,0,0,.176.014,1.07,1.07,0,0,0,1.054-.9l.647-3.913h2.58l-.589,3.563a1.069,1.069,0,0,0,.881,1.23,1.083,1.083,0,0,0,.175.015,1.072,1.072,0,0,0,1.055-.9l.646-3.912h4.293a1.07,1.07,0,0,0,0-2.14h-3.939l.431-2.609h3.508a1.07,1.07,0,0,0,0-2.14h-3.153l.589-3.563a1.07,1.07,0,0,0-2.111-.349l-.647,3.912h-2.581l.589-3.563a1.07,1.07,0,0,0-2.111-.349l-.646,3.912h-4.293a1.07,1.07,0,0,0,0,2.14h3.939l-.432,2.609Zm6.108-2.609h2.581l-.431,2.609h-2.581Zm0,0" transform="translate(-565.257 -325.545)" fill="#47ad19"/>
      <path id="Trazado_3513" data-name="Trazado 3513" d="M690.072,485.2a3.6,3.6,0,0,0-3.166-.712,3.98,3.98,0,0,0-2.968,4.016,5.257,5.257,0,0,0,1.581,3.76,15.7,15.7,0,0,0,4.066,2.8,1.068,1.068,0,0,0,1,0c3.389-1.8,5.646-3.6,5.646-6.564a3.954,3.954,0,0,0-3.074-3.995,3.587,3.587,0,0,0-3.087.69Zm4.02,3.3c0,1.6-1.06,2.781-4.008,4.4-2.947-1.622-4.007-2.8-4.007-4.4a1.83,1.83,0,0,1,1.333-1.937,1.592,1.592,0,0,1,.377-.045,1.477,1.477,0,0,1,1.347.862,1.069,1.069,0,0,0,1.919-.039,1.391,1.391,0,0,1,1.641-.747,1.809,1.809,0,0,1,1.4,1.906Zm0,0" transform="translate(-654.817 -431.824)" fill="#47ad19"/>
    </g>
  </g>
</svg>
