<svg xmlns="http://www.w3.org/2000/svg" width="28.865" height="28.753" viewBox="0 0 28.865 28.753">
  <g id="linkedin_logo_footer_linktic" data-name="linkedin  logo footer linktic" transform="translate(23929.865 11827)">
    <g id="Grupo_2457" data-name="Grupo 2457" transform="translate(-23929.865 -11827)">
      <path id="Trazado_3404" data-name="Trazado 3404" d="M614.537,304.036c.461-.475.749-.809,1.075-1.1a7.756,7.756,0,0,1,9.371-.2,6.52,6.52,0,0,1,2.212,4.977c.172,4.207.138,8.423.2,12.635.008.531-.229.683-.716.679-1.556-.013-3.112-.023-4.667.009-.593.012-.776-.19-.77-.78q.038-4.454.006-8.908a15.024,15.024,0,0,0-.172-2.193,2.574,2.574,0,0,0-2.327-2.421c-1.75-.18-3.028.444-3.537,1.83a5.886,5.886,0,0,0-.356,1.9q-.075,4.749-.046,9.5c.006.787-.181,1.111-1.038,1.069-1.439-.07-2.885-.041-4.326-.008-.6.014-.779-.2-.778-.788q.024-8.823,0-17.646c0-.612.17-.857.817-.839q2.12.06,4.242,0c.639-.018.874.2.815.827C614.506,302.986,614.537,303.4,614.537,304.036Z" transform="translate(-598.533 -292.282)" fill="#fff"/>
      <path id="Trazado_3405" data-name="Trazado 3405" d="M551.744,313.76c0-2.911.016-5.822-.012-8.733-.006-.656.176-.907.863-.886,1.469.044,2.94.035,4.409,0,.609-.014.863.167.861.809q-.016,8.817.014,17.635c0,.621-.211.851-.841.837q-2.246-.051-4.494,0c-.642.015-.817-.23-.812-.844C551.758,319.638,551.744,316.7,551.744,313.76Z" transform="translate(-551.255 -294.676)" fill="#fff"/>
      <path id="Trazado_3406" data-name="Trazado 3406" d="M555.978,251.884a3.464,3.464,0,0,1-3.534,3.546,3.529,3.529,0,0,1-.039-7.059A3.476,3.476,0,0,1,555.978,251.884Z" transform="translate(-548.923 -248.371)" fill="#fff"/>
    </g>
  </g>
</svg>
