<svg xmlns="http://www.w3.org/2000/svg" width="65" height="64.631" viewBox="0 0 65 64.631">
  <g id="software" transform="translate(-140.994 -3126.523)">
    <g id="Grupo_1974" data-name="Grupo 1974" transform="translate(140.994 3126.523)">
      <g id="Grupo_1653" data-name="Grupo 1653" transform="translate(0 0)">
        <path id="Trazado_3418" data-name="Trazado 3418" d="M-804.2,2158.868h-61.3l.045-.311a7.891,7.891,0,0,1,7.8-6.75h45.621a7.89,7.89,0,0,1,7.8,6.75Z" transform="translate(865.508 -2148.142)" fill="#3180c9" opacity="0.12"/>
        <path id="Trazado_3419" data-name="Trazado 3419" d="M-846.026,2200.624a2.452,2.452,0,0,1-2.361,1.811c-.054,0-.108,0-.16-.005a2.441,2.441,0,0,1-2.274-2.6,2.442,2.442,0,0,1,2.6-2.274,2.442,2.442,0,0,1,2.273,2.6A2.524,2.524,0,0,1-846.026,2200.624Z" transform="translate(865.76 -2147.359)" fill="#3180c9" opacity="0.12"/>
        <path id="Trazado_3420" data-name="Trazado 3420" d="M-842.544,2198.754l-.071-.255a38.634,38.634,0,0,1-.985-4.585l-.093-.61.509.337c.946.627,1.813,1.167,2.654,1.653s1.746.972,2.738,1.471l.546.276-.571.221a39.328,39.328,0,0,1-4.475,1.424Z" transform="translate(865.882 -2147.432)" fill="#3180c9" opacity="0.12"/>
        <path id="Trazado_3421" data-name="Trazado 3421" d="M-828.548,2200.515c-1.722,4.715-4.23,7.527-6.713,7.527s-4.984-2.813-6.713-7.527l-.1-.28.289-.075a43.372,43.372,0,0,0,6.414-2.226l.109-.048.109.048a42.612,42.612,0,0,0,6.414,2.223l.29.076Z" transform="translate(865.909 -2147.354)" fill="#3180c9" opacity="0.12"/>
        <path id="Trazado_3422" data-name="Trazado 3422" d="M-827.038,2193.916a38.933,38.933,0,0,1-.993,4.607l-.071.256-.257-.066a39.089,39.089,0,0,1-4.485-1.445l-.568-.222.545-.273c1.037-.521,1.939-1,2.759-1.475.792-.457,1.634-.981,2.651-1.65l.509-.335Z" transform="translate(866.058 -2147.432)" fill="#3180c9" opacity="0.12"/>
        <path id="Trazado_3423" data-name="Trazado 3423" d="M-816.474,2197.228v.006c-.9,1.567-3.109,2.4-6.154,2.4a21.816,21.816,0,0,1-3.728-.351l-.295-.052.08-.289a42.582,42.582,0,0,0,1.286-6.667l.013-.118.1-.07a43.839,43.839,0,0,0,4.483-3.794l1.481-1.435-1.059,1.77c-.016.026-.035.052-.054.077l-.019.026a4.067,4.067,0,0,0,1.475,5.561,4.075,4.075,0,0,0,2.045.55,4.019,4.019,0,0,0,.516-.033l.286-.038.02.288a3.971,3.971,0,0,1-.471,2.171Z" transform="translate(866.173 -2147.542)" fill="#3180c9" opacity="0.12"/>
        <path id="Trazado_3424" data-name="Trazado 3424" d="M-825.061,2183.192l-.016-.286h.383l.077.06a39.218,39.218,0,0,1,3.477,3.165l.184.191-.186.189a38.964,38.964,0,0,1-3.477,3.146l-.473.379.032-.61c.066-1.24.1-2.2.1-3.126,0-.946-.027-1.93-.1-3.106Z" transform="translate(866.2 -2147.611)" fill="#3180c9" opacity="0.12"/>
        <path id="Trazado_3425" data-name="Trazado 3425" d="M-818.67,2189.01a2.449,2.449,0,0,1,2.95-.388l.372.216-.035.024a2.441,2.441,0,0,1,.313,3.438,2.442,2.442,0,0,1-3.438.313,2.44,2.44,0,0,1-.313-3.438,2.146,2.146,0,0,1,.151-.165Z" transform="translate(866.298 -2147.518)" fill="#3180c9" opacity="0.12"/>
        <path id="Trazado_3426" data-name="Trazado 3426" d="M-826.358,2173.428c4.946-.869,8.64-.1,9.88,2.045s.058,5.727-3.163,9.573l-.191.229-.21-.213a42.944,42.944,0,0,0-5.137-4.443l-.1-.07-.013-.118a42.4,42.4,0,0,0-1.284-6.664l-.08-.289Z" transform="translate(866.173 -2147.778)" fill="#3180c9" opacity="0.12"/>
        <path id="Trazado_3427" data-name="Trazado 3427" d="M-828.095,2173.807l.071.255a38.9,38.9,0,0,1,.992,4.609l.092.6-.509-.334c-1.008-.663-1.853-1.188-2.657-1.652s-1.715-.952-2.757-1.476l-1.024-.515h1.1a38.682,38.682,0,0,1,4.438-1.424Z" transform="translate(866.049 -2147.766)" fill="#3180c9" opacity="0.12"/>
        <path id="Trazado_3428" data-name="Trazado 3428" d="M-837.452,2165.7l-.177-.229.239-.163a3.967,3.967,0,0,1,2.131-.688c2.489,0,5,2.816,6.719,7.535l.1.28-.29.075a42.494,42.494,0,0,0-6.415,2.22l-.109.047-.109-.047a43.635,43.635,0,0,0-5.526-1.987l-1.869-.533h1.944a.553.553,0,0,1,.1.01h.024a4.051,4.051,0,0,0,4.073-4.028,4.048,4.048,0,0,0-.843-2.5Z" transform="translate(865.897 -2147.923)" fill="#3180c9" opacity="0.12"/>
        <path id="Trazado_3429" data-name="Trazado 3429" d="M-840.676,2165.689a2.441,2.441,0,0,1,2.441,2.441,2.442,2.442,0,0,1-2.441,2.441,2.441,2.441,0,0,1-2.441-2.441h0a2.446,2.446,0,0,1,2.444-2.441Z" transform="translate(865.891 -2147.905)" fill="#3180c9" opacity="0.12"/>
        <path id="Trazado_3430" data-name="Trazado 3430" d="M-843.593,2178.661a38.909,38.909,0,0,1,1-4.594l.072-.255.256.066a38.587,38.587,0,0,1,4.464,1.438l.568.222-.543.274c-1.081.545-1.958,1.017-2.756,1.475-.826.478-1.666,1-2.644,1.643l-.509.336Z" transform="translate(865.882 -2147.765)" fill="#3180c9" opacity="0.12"/>
        <path id="Trazado_3431" data-name="Trazado 3431" d="M-843.935,2181.371l.1-.073c1.322-.937,2.712-1.83,4.126-2.645s2.878-1.574,4.367-2.262l.114-.053.114.053c1.5.693,2.97,1.453,4.366,2.26s2.779,1.7,4.143,2.67l.1.072.011.124c.148,1.612.225,3.26.225,4.9s-.076,3.291-.228,4.914l-.011.124-.1.072c-1.328.941-2.723,1.831-4.141,2.652-1.378.8-2.853,1.553-4.385,2.253l-.114.052-.114-.052c-1.486-.687-2.95-1.444-4.35-2.252-1.424-.825-2.821-1.717-4.141-2.653l-.1-.072-.011-.124c-.151-1.621-.227-3.275-.227-4.914,0-1.6.081-3.255.241-4.923Z" transform="translate(865.873 -2147.723)" fill="#3180c9" opacity="0.12"/>
        <path id="Trazado_3432" data-name="Trazado 3432" d="M-854.1,2175.476c1.239-2.147,4.929-2.913,9.872-2.049l.294.052-.079.288a43.256,43.256,0,0,0-1.28,6.671l-.013.118-.1.07a42.336,42.336,0,0,0-5.128,4.445l-.209.214-.193-.23c-3.224-3.853-4.408-7.434-3.165-9.58Z" transform="translate(865.695 -2147.779)" fill="#3180c9" opacity="0.12"/>
        <path id="Trazado_3433" data-name="Trazado 3433" d="M-845.624,2189.436l.035.61-.476-.381a38.923,38.923,0,0,1-3.491-3.162l-.186-.19.186-.19a38.811,38.811,0,0,1,3.5-3.164l.48-.384-.04.61c-.073,1.119-.108,2.143-.108,3.125,0,.939.035,1.931.1,3.127Z" transform="translate(865.778 -2147.616)" fill="#3180c9" opacity="0.12"/>
        <path id="Trazado_3434" data-name="Trazado 3434" d="M-850.932,2187.646l.192-.23.21.213a42.469,42.469,0,0,0,5.13,4.447l.1.07.013.118a43.505,43.505,0,0,0,1.043,5.78l.508,2.018-1.007-1.82a.846.846,0,0,1-.043-.091.091.091,0,0,0-.011-.03,4.052,4.052,0,0,0-5.53-1.505,4.051,4.051,0,0,0-1.735,1.974l-.109.267-.259-.125a3.967,3.967,0,0,1-1.661-1.5c-1.243-2.153-.059-5.734,3.168-9.588Z" transform="translate(865.695 -2147.533)" fill="#3180c9" opacity="0.12"/>
        <g id="Grupo_1046" data-name="Grupo 1046" transform="translate(0.37)">
          <g id="Grupo_976" data-name="Grupo 976">
            <g id="Grupo_967" data-name="Grupo 967">
              <path id="Trazado_728" data-name="Trazado 728" d="M-818.716,2152.541h-.006a.854.854,0,0,0-.265.166.95.95,0,0,0-.171.273.791.791,0,0,0-.066.31.864.864,0,0,0,.235.576.88.88,0,0,0,.267.168.816.816,0,0,0,.316.068h0a.814.814,0,0,0,.815-.813.813.813,0,0,0-.813-.814.817.817,0,0,0-.317.064Z" transform="translate(865.93 -2148.131)" fill="#3180c9"/>
              <path id="Trazado_729" data-name="Trazado 729" d="M-813.561,2152.709a.814.814,0,0,0-.884-.168.848.848,0,0,0-.278.175.731.731,0,0,0-.16.256.813.813,0,0,0-.07.321.775.775,0,0,0,.5.743.836.836,0,0,0,.319.069.849.849,0,0,0,.58-.239.867.867,0,0,0,.232-.58.787.787,0,0,0-.065-.306A.87.87,0,0,0-813.561,2152.709Z" transform="translate(866.003 -2148.131)" fill="#3180c9"/>
              <path id="Trazado_730" data-name="Trazado 730" d="M-809.108,2153l-.015-.036a.575.575,0,0,0-.066-.133,1.574,1.574,0,0,0-.1-.132.794.794,0,0,0-.567-.233.815.815,0,0,0-.315.063.813.813,0,0,0-.438,1.064.814.814,0,0,0,1.065.438.816.816,0,0,0,.5-.742,1.14,1.14,0,0,0-.017-.157A.39.39,0,0,0-809.108,2153Z" transform="translate(866.077 -2148.131)" fill="#3180c9"/>
              <path id="Trazado_731" data-name="Trazado 731" d="M-853.482,2196.455a5.835,5.835,0,0,0,2.972,2.425l.156.057.02.165a4.05,4.05,0,0,0,2.983,3.416,4.179,4.179,0,0,0,1.062.14,4.036,4.036,0,0,0,3.945-3.153l.041-.178.18-.029c.165-.027.323-.053.492-.083l.228-.042.077.218c2.007,5.642,5.034,8.877,8.306,8.877s6.3-3.237,8.308-8.881l.078-.22.229.043a24.256,24.256,0,0,0,4.3.43c3.736,0,6.348-1.1,7.552-3.189a5.825,5.825,0,0,0,.619-3.78l-.029-.162.131-.1a4.069,4.069,0,0,0,.808-5.7,4.068,4.068,0,0,0-4.332-1.478.159.159,0,0,0-.032.012c-.031.013-.062.024-.093.035l-.169.049-.114-.134-.113-.134c-.067-.082-.135-.164-.208-.245l-.159-.177.155-.181c3.881-4.56,5.17-8.8,3.536-11.637s-5.951-3.838-11.847-2.754l-.227.042-.077-.218c-2.012-5.64-5.041-8.875-8.311-8.875a5.821,5.821,0,0,0-3.582,1.359l-.127.107-.154-.065a4.069,4.069,0,0,0-5.317,2.2,4.068,4.068,0,0,0,.969,4.519l.133.124-.077.2c-.054.145-.107.287-.159.432l-.077.218-.228-.042c-5.89-1.082-10.207-.078-11.842,2.754s-.345,7.075,3.54,11.637l.15.176-.15.176C-853.823,2189.382-855.114,2193.621-853.482,2196.455Zm9.547,2.76a2.454,2.454,0,0,1-2.361,1.811c-.054,0-.108,0-.16-.006a2.441,2.441,0,0,1-2.274-2.6,2.442,2.442,0,0,1,2.6-2.274,2.442,2.442,0,0,1,2.273,2.6A2.533,2.533,0,0,1-843.935,2199.215Zm3.6-1.943-.071-.256a38.6,38.6,0,0,1-.985-4.585l-.093-.611.509.338c.946.626,1.814,1.167,2.654,1.653s1.746.972,2.738,1.472l.546.276-.572.221a39.216,39.216,0,0,1-4.475,1.424Zm14.023,1.84c-1.722,4.715-4.23,7.527-6.713,7.527s-4.984-2.813-6.713-7.527l-.1-.281.289-.075a43.339,43.339,0,0,0,6.414-2.226l.109-.048.109.048a42.622,42.622,0,0,0,6.414,2.223l.29.076Zm1.659-6.677a38.957,38.957,0,0,1-.993,4.607l-.071.255-.257-.066a39.027,39.027,0,0,1-4.484-1.444l-.569-.222.545-.273c1.037-.521,1.939-1,2.758-1.475.792-.457,1.634-.982,2.652-1.65l.509-.335Zm10.68,3.2v.006c-.9,1.567-3.109,2.4-6.154,2.4a21.867,21.867,0,0,1-3.728-.351l-.295-.052.08-.289a42.573,42.573,0,0,0,1.286-6.666l.013-.118.1-.07a43.9,43.9,0,0,0,4.484-3.794l1.481-1.435-1.059,1.769a.9.9,0,0,1-.054.077l-.019.027a4.068,4.068,0,0,0,1.475,5.562,4.075,4.075,0,0,0,2.045.55,4.018,4.018,0,0,0,.516-.033l.286-.038.02.288a3.971,3.971,0,0,1-.471,2.17Zm-8.56-14.1-.016-.287h.383l.077.06a39.249,39.249,0,0,1,3.477,3.165l.184.19-.186.189a39.051,39.051,0,0,1-3.476,3.146l-.473.379.033-.61c.066-1.24.1-2.2.1-3.126,0-.946-.027-1.93-.1-3.106Zm6.488,5.911a2.449,2.449,0,0,1,2.95-.388l.372.216-.035.024a2.441,2.441,0,0,1,.313,3.438,2.441,2.441,0,0,1-3.438.313,2.44,2.44,0,0,1-.313-3.438,2.139,2.139,0,0,1,.151-.165Zm-7.812-15.843c4.946-.869,8.64-.1,9.88,2.045s.058,5.727-3.163,9.573l-.191.229-.209-.212a42.976,42.976,0,0,0-5.137-4.443l-.1-.07-.013-.118a42.38,42.38,0,0,0-1.284-6.664l-.08-.289Zm-1.86.39.071.255a38.941,38.941,0,0,1,.992,4.61l.092.6-.509-.334c-1.008-.663-1.853-1.188-2.657-1.652s-1.715-.952-2.757-1.476l-1.024-.515h1.1a38.536,38.536,0,0,1,4.438-1.424Zm-9.509-8.263-.177-.229.239-.162a3.964,3.964,0,0,1,2.131-.689c2.489,0,5,2.816,6.719,7.535l.1.28-.29.076a42.437,42.437,0,0,0-6.415,2.219l-.109.048-.109-.048a43.564,43.564,0,0,0-5.526-1.987l-1.87-.533h1.944a.555.555,0,0,1,.1.01h.024a4.051,4.051,0,0,0,4.073-4.028,4.049,4.049,0,0,0-.843-2.5Zm-3.23.007a2.441,2.441,0,0,1,2.441,2.441,2.442,2.442,0,0,1-2.441,2.441,2.441,2.441,0,0,1-2.441-2.441h0a2.445,2.445,0,0,1,2.444-2.441Zm-2.926,13.111a38.876,38.876,0,0,1,1-4.594l.072-.255.256.066a38.725,38.725,0,0,1,4.464,1.437l.568.222-.543.273c-1.081.545-1.958,1.017-2.756,1.476-.826.478-1.666,1-2.644,1.642l-.509.336Zm-.351,2.752.1-.072c1.322-.937,2.712-1.831,4.126-2.645s2.878-1.574,4.366-2.262l.114-.053.114.053c1.5.693,2.97,1.454,4.366,2.26s2.779,1.7,4.143,2.67l.1.073.011.124c.148,1.613.225,3.26.225,4.9s-.076,3.292-.228,4.913l-.011.125-.1.072c-1.328.941-2.723,1.831-4.141,2.652-1.378.8-2.853,1.554-4.385,2.253l-.114.052-.114-.052c-1.486-.686-2.95-1.444-4.35-2.252-1.424-.825-2.82-1.717-4.141-2.653l-.1-.072-.011-.124c-.151-1.621-.227-3.275-.227-4.914,0-1.6.081-3.255.241-4.923Zm-10.341-5.951c1.239-2.147,4.929-2.913,9.872-2.048l.294.052-.079.288a43.249,43.249,0,0,0-1.279,6.671l-.013.118-.1.07a42.365,42.365,0,0,0-5.128,4.445l-.21.214-.192-.23c-3.224-3.853-4.408-7.435-3.165-9.58Zm8.557,14.123.035.61-.476-.381a38.905,38.905,0,0,1-3.491-3.162l-.186-.19.186-.19a38.879,38.879,0,0,1,3.5-3.164l.48-.384-.04.61c-.073,1.119-.108,2.143-.108,3.125,0,.939.035,1.932.1,3.127Zm-5.391-1.707.192-.23.21.214a42.411,42.411,0,0,0,5.13,4.447l.1.07.013.118a43.524,43.524,0,0,0,1.043,5.781l.509,2.018-1.007-1.82a.879.879,0,0,1-.043-.092.087.087,0,0,0-.011-.029,4.052,4.052,0,0,0-5.53-1.505,4.055,4.055,0,0,0-1.735,1.974l-.109.267-.259-.125a3.962,3.962,0,0,1-1.661-1.5c-1.243-2.152-.059-5.734,3.168-9.587Z" transform="translate(865.332 -2147.985)" fill="#3180c9"/>
              <path id="Trazado_732" data-name="Trazado 732" d="M-833.269,2190.6a6.247,6.247,0,0,0,6.246-6.246,6.246,6.246,0,0,0-6.246-6.246,6.246,6.246,0,0,0-6.246,6.246A6.262,6.262,0,0,0-833.269,2190.6Zm0-10.863a4.617,4.617,0,0,1,4.617,4.617,4.617,4.617,0,0,1-4.617,4.616,4.617,4.617,0,0,1-4.617-4.616,4.62,4.62,0,0,1,4.617-4.616Z" transform="translate(865.583 -2147.692)" fill="#3180c9"/>
              <path id="Trazado_733" data-name="Trazado 733" d="M-810.018,2148.2H-855.64a9.53,9.53,0,0,0-9.5,9.5v45.622a9.532,9.532,0,0,0,9.5,9.5h45.621a9.533,9.533,0,0,0,9.5-9.5v-45.622A9.532,9.532,0,0,0-810.018,2148.2Zm7.875,55.128a7.9,7.9,0,0,1-7.873,7.875h-45.622a7.9,7.9,0,0,1-7.875-7.875v-44.808h61.372Zm-.033-46.436h-61.3l.045-.311a7.89,7.89,0,0,1,7.8-6.75h45.621a7.89,7.89,0,0,1,7.8,6.75Z" transform="translate(865.144 -2148.204)" fill="#3180c9"/>
            </g>
          </g>
        </g>
      </g>
    </g>
  </g>
</svg>
