<svg xmlns="http://www.w3.org/2000/svg" width="71.536" height="71.563" viewBox="0 0 71.536 71.563">
  <g id="insfraestructura_ti" data-name="insfraestructura ti" transform="translate(0)">
    <g id="Grupo_1335" data-name="Grupo 1335">
      <g id="Grupo_1049" data-name="Grupo 1049" transform="translate(0.471)">
        <g id="Grupo_973" data-name="Grupo 973">
          <g id="Grupo_970" data-name="Grupo 970">
            <path id="Trazado_739" data-name="Trazado 739" d="M-841.111,2586.125a4.949,4.949,0,0,1,4.615-4.614v-1.679a6.626,6.626,0,0,0-6.292,6.293Z" transform="translate(868.252 -2556.671)" fill="#2c8405"/>
            <path id="Trazado_740" data-name="Trazado 740" d="M-844.875,2609.356h1.694a3.154,3.154,0,0,0-2.815-2.815v1.7A1.478,1.478,0,0,1-844.875,2609.356Z" transform="translate(867.987 -2554.467)" fill="#2c8405"/>
            <path id="Trazado_741" data-name="Trazado 741" d="M-797.557,2573.5h-1.675v4.625h-2.95v-8.092h-1.676v8.093h-2.949v-11.562h-1.671v12.168l-1.88,3.139-.254-.108a16.062,16.062,0,0,0-6.279-1.319,15.827,15.827,0,0,0-7.447,1.865l-.259.138-.158-.248a11.454,11.454,0,0,0-2.061-2.4l-.218-.192,5.34-7.344.236.109a5.38,5.38,0,0,0,2.256.5,5.486,5.486,0,0,0,5.51-5.463,5.486,5.486,0,0,0-5.462-5.51,5.486,5.486,0,0,0-5.51,5.463,5.481,5.481,0,0,0,1.437,3.724l.176.192-5.346,7.33-.248-.143a11.17,11.17,0,0,0-5.591-1.5,10.627,10.627,0,0,0-1.125.067l-.351.036v-7.794l.216-.076a3.15,3.15,0,0,0,1.923-4.021,3.151,3.151,0,0,0-4.021-1.923,3.15,3.15,0,0,0-1.921,4.021,3.15,3.15,0,0,0,1.921,1.922l.218.076v8.163l-.223.07a11.221,11.221,0,0,0-4.894,3.093l-.224.245-13.691-13.691.143-.217a5.476,5.476,0,0,0-1.548-7.589,5.476,5.476,0,0,0-7.589,1.548,5.477,5.477,0,0,0,1.548,7.588,5.479,5.479,0,0,0,6.045,0l.216-.144,13.867,13.867-.13.217a11,11,0,0,0-1.552,4.665l-.028.287h-8.882l-.075-.217a3.151,3.151,0,0,0-4.019-1.922,3.15,3.15,0,0,0-1.92,4.021,3.15,3.15,0,0,0,4.019,1.92,3.149,3.149,0,0,0,1.92-1.92l.075-.217h8.877l.028.287a11.135,11.135,0,0,0,6.062,8.877l.258.131-3.1,7.929-.279-.082a7.7,7.7,0,0,0-8.83,3.473l-.159.27-6.3-3.6.04-.216a3.1,3.1,0,0,0,.058-.556,3.15,3.15,0,0,0-3.151-3.15,3.149,3.149,0,0,0-3.149,3.15,3.149,3.149,0,0,0,3.149,3.15,3.108,3.108,0,0,0,2.044-.774l.17-.146,6.508,3.718-.061.235a7.653,7.653,0,0,0,1.3,6.559l.167.217-5.111,5.11-.2-.1a3.11,3.11,0,0,0-1.35-.315,3.176,3.176,0,0,0-3.2,3.151,3.178,3.178,0,0,0,3.15,3.2,3.177,3.177,0,0,0,3.2-3.152,3.188,3.188,0,0,0-.314-1.4l-.1-.2,5.107-5.107.216.166a7.673,7.673,0,0,0,4.65,1.553,7.835,7.835,0,0,0,7.435-5.5l.078-.255,5.539.693.046.224a3.177,3.177,0,0,0,3.715,2.529,3.179,3.179,0,0,0,2.529-3.716,3.178,3.178,0,0,0-3.715-2.529,3.179,3.179,0,0,0-2.217,1.639l-.1.195-5.549-.694.012-.292v-.064a7.849,7.849,0,0,0-3.588-6.539l-.217-.141,3.132-8.011.277.078a11.194,11.194,0,0,0,3.031.418,11.432,11.432,0,0,0,1.475-.108l.292-.039.062.288a15.934,15.934,0,0,0,15.512,12.576,15.721,15.721,0,0,0,4.185-.574l.239-.066,8.835,15.707a4.52,4.52,0,0,0,3.933,2.273,4.473,4.473,0,0,0,4.457-4.457,4.3,4.3,0,0,0-.638-2.289l-9.4-15.676.158-.174a15.838,15.838,0,0,0-1.1-22.371,15.828,15.828,0,0,0-2.363-1.77l-.269-.165,1.688-2.815h11.926V2578.1h-2.313Zm-21.651-9.885a3.789,3.789,0,0,1,3.789,3.789,3.789,3.789,0,0,1-3.789,3.789,3.727,3.727,0,0,1-2.231-.735,3.783,3.783,0,0,1-.829-5.283,3.781,3.781,0,0,1,3.06-1.554Zm-41.618,4.1a3.788,3.788,0,0,1-3.789-3.789,3.788,3.788,0,0,1,3.789-3.789,3.789,3.789,0,0,1,3.789,3.789h0a3.79,3.79,0,0,1-3.786,3.79Zm3.464,21.966a1.474,1.474,0,0,1-1.475-1.473,1.473,1.473,0,0,1,1.472-1.476,1.474,1.474,0,0,1,1.476,1.473h0a1.478,1.478,0,0,1-1.466,1.476Zm-3.464,17.341a1.475,1.475,0,0,1-1.476-1.475,1.475,1.475,0,0,1,1.474-1.474,1.473,1.473,0,0,1,1.474,1.474h0a1.477,1.477,0,0,1-1.47,1.476Zm3.464,20.81a1.476,1.476,0,0,1-1.514-1.435,1.474,1.474,0,0,1,1.434-1.513c.027,0,.053,0,.08,0a1.434,1.434,0,0,1,1.051.45,1.414,1.414,0,0,1,.423,1.024,1.476,1.476,0,0,1-1.467,1.475Zm28.9-13.354a1.474,1.474,0,0,1,1.476,1.473,1.474,1.474,0,0,1-1.473,1.475,1.475,1.475,0,0,1-1.475-1.473h0a1.477,1.477,0,0,1,1.478-1.473Zm-10.087-.838a6.1,6.1,0,0,1-6.1,6.1,6.1,6.1,0,0,1-6.109-6.087,6.1,6.1,0,0,1,6.086-6.109,6.082,6.082,0,0,1,2.568.562l.017.006a6.12,6.12,0,0,1,3.541,5.531Zm.521-47.4a1.475,1.475,0,0,1,1.474-1.474,1.475,1.475,0,0,1,1.474,1.474,1.475,1.475,0,0,1-1.474,1.475h0a1.476,1.476,0,0,1-1.468-1.473Zm5.26,30.06c0,.334.012.673.034,1.034l.022.3-.3.038a10.637,10.637,0,0,1-1.313.085,9.208,9.208,0,0,1-3.407-.64,9.565,9.565,0,0,1-5.43-12.39,9.565,9.565,0,0,1,12.39-5.431,9.571,9.571,0,0,1,2.084,1.13,9.772,9.772,0,0,1,2.5,2.648l.163.252-.244.177a15.656,15.656,0,0,0-6.5,12.8Zm35.449,27.341a2.654,2.654,0,0,1,.39,1.407,2.793,2.793,0,0,1-2.8,2.78h-.023a2.793,2.793,0,0,1-2.425-1.421l-6.439-11.442,4.488-2.693Zm-7.676-12.8-4.447,2.672-1.437-2.551.325-.141a16,16,0,0,0,3.746-2.3l.285-.235Zm2.285-14.54a14.073,14.073,0,0,1-4.213,10.085,14.348,14.348,0,0,1-5.432,3.356,13.968,13.968,0,0,1-4.547.752,14.231,14.231,0,0,1-14.059-12.272,13.72,13.72,0,0,1-.131-1.919,14.162,14.162,0,0,1,14.135-14.191,14.16,14.16,0,0,1,5.379,1.05l.343.139-1.534,2.555-.247-.092a11.121,11.121,0,0,0-3.887-.7,11.263,11.263,0,0,0-6.757,2.266l1.046,1.31a9.448,9.448,0,0,1,5.71-1.9,9.532,9.532,0,0,1,2.876.454l.383.121-1.5,2.506,1.438.866,1.588-2.646.274.172a9.63,9.63,0,0,1,4.51,8.1,9.452,9.452,0,0,1-1.9,5.712l1.309,1.047a11.2,11.2,0,0,0-2.176-15.685q-.432-.326-.892-.609l-.266-.166,1.532-2.552.273.169A14.1,14.1,0,0,1-802.7,2596.3Z" transform="translate(866.31 -2558.437)" fill="#2c8405"/>
            <path id="Trazado_742" data-name="Trazado 742" d="M-819.8,2603.5a9.577,9.577,0,0,1-9.566-9.566,9.449,9.449,0,0,1,1.9-5.712l-1.309-1.045a11.232,11.232,0,0,0,2.193,15.734,11.235,11.235,0,0,0,13.541,0l-1.046-1.31A9.449,9.449,0,0,1-819.8,2603.5Z" transform="translate(869.221 -2556.065)" fill="#2c8405"/>
          </g>
        </g>
      </g>
      <path id="Trazado_3451" data-name="Trazado 3451" d="M-841.732,2611.9a6.105,6.105,0,0,1-6.1,6.1,6.1,6.1,0,0,1-6.109-6.087,6.1,6.1,0,0,1,6.086-6.108,6.078,6.078,0,0,1,2.568.562l.017.006a6.12,6.12,0,0,1,3.541,5.531Z" transform="translate(867.802 -2554.528)" fill="#2c8405" opacity="0.12"/>
      <path id="Trazado_3452" data-name="Trazado 3452" d="M-836.48,2596.761c0,.334.012.673.034,1.034l.022.3-.3.038a10.639,10.639,0,0,1-1.313.084,9.216,9.216,0,0,1-3.407-.64,9.565,9.565,0,0,1-5.43-12.39,9.565,9.565,0,0,1,12.39-5.431,9.539,9.539,0,0,1,2.084,1.13,9.766,9.766,0,0,1,2.5,2.648l.162.252-.244.177a15.656,15.656,0,0,0-6.5,12.8Z" transform="translate(868.331 -2556.732)" fill="#2c8405" opacity="0.12"/>
      <path id="Trazado_3453" data-name="Trazado 3453" d="M-807.393,2596.5a14.074,14.074,0,0,1-4.213,10.085,14.342,14.342,0,0,1-5.432,3.356,13.981,13.981,0,0,1-4.547.752,14.231,14.231,0,0,1-14.059-12.272,13.7,13.7,0,0,1-.131-1.919,14.163,14.163,0,0,1,14.135-14.191,14.171,14.171,0,0,1,5.379,1.05l.343.14-1.534,2.555-.247-.092a11.111,11.111,0,0,0-3.887-.7,11.264,11.264,0,0,0-6.757,2.266l1.046,1.31a9.451,9.451,0,0,1,5.71-1.9,9.54,9.54,0,0,1,2.876.454l.383.121-1.5,2.507,1.438.866,1.588-2.646.274.172a9.631,9.631,0,0,1,4.51,8.1,9.452,9.452,0,0,1-1.9,5.711l1.309,1.047a11.2,11.2,0,0,0-2.176-15.685c-.288-.217-.586-.42-.892-.608l-.266-.166,1.532-2.552.273.169a14.105,14.105,0,0,1,6.755,12.08Z" transform="translate(869.301 -2556.467)" fill="#2c8405" opacity="0.12"/>
      <path id="Trazado_3454" data-name="Trazado 3454" d="M-824.511,2565.218a3.789,3.789,0,0,1,3.789,3.789,3.789,3.789,0,0,1-3.789,3.789,3.723,3.723,0,0,1-2.231-.735,3.783,3.783,0,0,1-.829-5.283,3.78,3.78,0,0,1,3.06-1.555Z" transform="translate(869.919 -2557.878)" fill="#2c8405" opacity="0.12"/>
      <path id="Trazado_3455" data-name="Trazado 3455" d="M-862.956,2569.587a3.788,3.788,0,0,1-3.789-3.789,3.788,3.788,0,0,1,3.789-3.789,3.789,3.789,0,0,1,3.789,3.789h0a3.79,3.79,0,0,1-3.786,3.79Z" transform="translate(866.745 -2558.143)" fill="#2c8405" opacity="0.12"/>
      <path id="Trazado_3456" data-name="Trazado 3456" d="M-863.133,2605.544a1.475,1.475,0,0,1-1.476-1.475,1.475,1.475,0,0,1,1.474-1.475,1.474,1.474,0,0,1,1.475,1.475h0a1.477,1.477,0,0,1-1.47,1.476Z" transform="translate(866.921 -2554.792)" fill="#2c8405" opacity="0.12"/>
      <path id="Trazado_3457" data-name="Trazado 3457" d="M-859.93,2624.766a1.476,1.476,0,0,1-1.515-1.434,1.474,1.474,0,0,1,1.434-1.513h.08a1.434,1.434,0,0,1,1.051.45,1.415,1.415,0,0,1,.423,1.024,1.475,1.475,0,0,1-1.467,1.475Z" transform="translate(867.183 -2553.205)" fill="#2c8405" opacity="0.12"/>
      <path id="Trazado_3458" data-name="Trazado 3458" d="M-833.233,2612.207a1.474,1.474,0,0,1,1.475,1.473,1.475,1.475,0,0,1-1.473,1.476,1.475,1.475,0,0,1-1.475-1.473h0a1.476,1.476,0,0,1,1.478-1.473Z" transform="translate(869.39 -2553.999)" fill="#2c8405" opacity="0.12"/>
      <path id="Trazado_3459" data-name="Trazado 3459" d="M-803.715,2621.537a2.655,2.655,0,0,1,.39,1.408,2.792,2.792,0,0,1-2.8,2.78h-.023a2.793,2.793,0,0,1-2.425-1.421l-6.439-11.441,4.488-2.693Z" transform="translate(871.015 -2554.167)" fill="#2c8405" opacity="0.12"/>
      <path id="Trazado_3460" data-name="Trazado 3460" d="M-811.219,2609.04l-4.447,2.672-1.437-2.552.325-.141a16,16,0,0,0,3.746-2.3l.285-.235Z" transform="translate(870.843 -2554.471)" fill="#2c8405" opacity="0.12"/>
    </g>
  </g>
</svg>
