<svg xmlns="http://www.w3.org/2000/svg" width="15.923" height="15.859" viewBox="0 0 15.923 15.859">
  <g id="link_rostros" data-name="link rostros" transform="translate(9861.987 18018.633)">
    <g id="Grupo_2077" data-name="Grupo 2077" transform="translate(-9871 -18027)">
      <g id="Grupo_1442" data-name="Grupo 1442" transform="translate(9.012 8.368)">
        <path id="Trazado_3404" data-name="Trazado 3404" d="M611.907,302.789c.254-.262.413-.446.593-.607a4.278,4.278,0,0,1,5.169-.112,3.6,3.6,0,0,1,1.22,2.746c.095,2.321.076,4.647.112,6.97,0,.293-.126.377-.395.374-.858-.007-1.717-.013-2.574.005-.327.007-.428-.105-.425-.43q.021-2.457,0-4.914a8.3,8.3,0,0,0-.1-1.21,1.42,1.42,0,0,0-1.284-1.336,1.684,1.684,0,0,0-1.951,1.009,3.249,3.249,0,0,0-.2,1.049q-.041,2.62-.025,5.241c0,.434-.1.613-.572.59-.794-.039-1.591-.022-2.387,0-.33.007-.43-.112-.429-.434q.013-4.867,0-9.734c0-.338.094-.473.451-.463q1.169.033,2.34,0c.352-.01.482.11.449.456C611.89,302.21,611.907,302.44,611.907,302.789Z" transform="translate(-603.078 -296.306)" fill="#fff"/>
        <path id="Trazado_3405" data-name="Trazado 3405" d="M551.738,309.446c0-1.606.009-3.212-.007-4.817,0-.362.1-.5.476-.489.81.024,1.622.02,2.432,0,.336-.008.476.092.475.446q-.009,4.864.008,9.728c0,.342-.117.469-.464.462q-1.239-.028-2.479,0c-.354.008-.451-.127-.448-.466C551.746,312.689,551.738,311.067,551.738,309.446Z" transform="translate(-551.468 -298.919)" fill="#fff"/>
        <path id="Trazado_3406" data-name="Trazado 3406" d="M552.815,250.309a1.911,1.911,0,0,1-1.95,1.956,1.947,1.947,0,0,1-.022-3.894A1.917,1.917,0,0,1,552.815,250.309Z" transform="translate(-548.923 -248.371)" fill="#fff"/>
      </g>
    </g>
  </g>
</svg>
