<svg xmlns="http://www.w3.org/2000/svg" width="62.299" height="61.945" viewBox="0 0 62.299 61.945">
  <g id="Software" transform="translate(24930 15431.999)">
    <g id="Grupo_2443" data-name="Grupo 2443" transform="translate(-25070.994 -18558.523)">
      <g id="Grupo_1974" data-name="Grupo 1974" transform="translate(140.994 3126.523)">
        <g id="Grupo_1653" data-name="Grupo 1653" transform="translate(0 0)">
          <path id="Trazado_3418" data-name="Trazado 3418" d="M-806.753,2158.574h-58.755l.043-.3a7.562,7.562,0,0,1,7.472-6.469h43.724a7.562,7.562,0,0,1,7.471,6.469Z" transform="translate(865.508 -2148.294)" fill="#45a4fd" opacity="0.12"/>
          <path id="Trazado_3419" data-name="Trazado 3419" d="M-846.226,2200.5a2.351,2.351,0,0,1-2.263,1.735c-.052,0-.1,0-.153,0a2.34,2.34,0,0,1-2.18-2.49,2.341,2.341,0,0,1,2.491-2.18,2.34,2.34,0,0,1,2.179,2.49A2.415,2.415,0,0,1-846.226,2200.5Z" transform="translate(865.139 -2149.446)" fill="#45a4fd" opacity="0.12"/>
          <path id="Trazado_3420" data-name="Trazado 3420" d="M-842.591,2198.527l-.068-.245a37.007,37.007,0,0,1-.944-4.394l-.089-.585.487.323c.907.6,1.738,1.118,2.543,1.584s1.674.932,2.624,1.41l.523.264-.548.212a37.673,37.673,0,0,1-4.289,1.365Z" transform="translate(864.959 -2149.339)" fill="#45a4fd" opacity="0.12"/>
          <path id="Trazado_3421" data-name="Trazado 3421" d="M-829.111,2200.406c-1.65,4.519-4.054,7.214-6.434,7.214s-4.777-2.7-6.434-7.214l-.1-.269.277-.072a41.54,41.54,0,0,0,6.147-2.133l.1-.046.1.046a40.87,40.87,0,0,0,6.147,2.131l.278.072Z" transform="translate(864.918 -2149.454)" fill="#45a4fd" opacity="0.12"/>
          <path id="Trazado_3422" data-name="Trazado 3422" d="M-827.3,2193.891a37.323,37.323,0,0,1-.951,4.416l-.068.245-.247-.063a37.424,37.424,0,0,1-4.3-1.384l-.545-.213.522-.262c.994-.5,1.858-.961,2.644-1.414.759-.437,1.567-.941,2.541-1.581l.488-.321Z" transform="translate(864.7 -2149.339)" fill="#45a4fd" opacity="0.12"/>
          <path id="Trazado_3423" data-name="Trazado 3423" d="M-816.9,2196.8v.006c-.866,1.5-2.98,2.3-5.9,2.3a20.925,20.925,0,0,1-3.573-.336l-.283-.05.077-.277a40.808,40.808,0,0,0,1.232-6.389l.013-.113.092-.067a42.016,42.016,0,0,0,4.3-3.636l1.419-1.375-1.015,1.7c-.016.025-.033.05-.052.074l-.018.025a3.9,3.9,0,0,0,1.413,5.33,3.905,3.905,0,0,0,1.96.527,3.861,3.861,0,0,0,.494-.032l.274-.036.02.276a3.807,3.807,0,0,1-.451,2.081Z" transform="translate(864.53 -2149.177)" fill="#45a4fd" opacity="0.12"/>
          <path id="Trazado_3424" data-name="Trazado 3424" d="M-825.062,2183.18l-.016-.275h.367l.074.057A37.6,37.6,0,0,1-821.3,2186l.176.183-.178.181a37.329,37.329,0,0,1-3.332,3.015l-.453.364.031-.585c.063-1.188.092-2.113.092-3,0-.907-.026-1.85-.092-2.977Z" transform="translate(864.491 -2149.077)" fill="#45a4fd" opacity="0.12"/>
          <path id="Trazado_3425" data-name="Trazado 3425" d="M-818.7,2188.98a2.347,2.347,0,0,1,2.827-.372l.357.207-.033.023a2.34,2.34,0,0,1,.3,3.295,2.34,2.34,0,0,1-3.295.3,2.338,2.338,0,0,1-.3-3.295,2.064,2.064,0,0,1,.144-.158Z" transform="translate(864.347 -2149.213)" fill="#45a4fd" opacity="0.12"/>
          <path id="Trazado_3426" data-name="Trazado 3426" d="M-826.37,2173.414c4.741-.833,8.281-.1,9.47,1.96s.056,5.489-3.032,9.175l-.183.219-.2-.2a41.161,41.161,0,0,0-4.924-4.258l-.092-.067-.013-.113a40.632,40.632,0,0,0-1.23-6.387l-.077-.277Z" transform="translate(864.53 -2148.83)" fill="#45a4fd" opacity="0.12"/>
          <path id="Trazado_3427" data-name="Trazado 3427" d="M-828.335,2173.806l.068.245a37.3,37.3,0,0,1,.951,4.418l.088.577-.487-.321c-.966-.636-1.776-1.139-2.546-1.583s-1.644-.912-2.643-1.414l-.982-.493h1.053a37.011,37.011,0,0,1,4.253-1.365Z" transform="translate(864.712 -2148.848)" fill="#45a4fd" opacity="0.12"/>
          <path id="Trazado_3428" data-name="Trazado 3428" d="M-837.672,2165.655l-.17-.219.229-.156a3.8,3.8,0,0,1,2.042-.66c2.385,0,4.789,2.7,6.44,7.222l.1.269-.278.072a40.717,40.717,0,0,0-6.148,2.127l-.1.045-.1-.045a41.81,41.81,0,0,0-5.3-1.9l-1.792-.511h1.863a.528.528,0,0,1,.1.01h.023a3.882,3.882,0,0,0,3.9-3.86,3.882,3.882,0,0,0-.808-2.393Z" transform="translate(864.935 -2148.617)" fill="#45a4fd" opacity="0.12"/>
          <path id="Trazado_3429" data-name="Trazado 3429" d="M-840.777,2165.689a2.34,2.34,0,0,1,2.34,2.34,2.34,2.34,0,0,1-2.34,2.339,2.339,2.339,0,0,1-2.34-2.339h0a2.344,2.344,0,0,1,2.343-2.34Z" transform="translate(864.945 -2148.644)" fill="#45a4fd" opacity="0.12"/>
          <path id="Trazado_3430" data-name="Trazado 3430" d="M-843.6,2178.459a37.288,37.288,0,0,1,.96-4.4l.069-.245.246.063a36.984,36.984,0,0,1,4.279,1.378l.544.212-.521.262c-1.036.522-1.877.975-2.642,1.414-.792.458-1.6.958-2.534,1.574l-.487.322Z" transform="translate(864.959 -2148.848)" fill="#45a4fd" opacity="0.12"/>
          <path id="Trazado_3431" data-name="Trazado 3431" d="M-843.945,2181.162l.1-.069c1.267-.9,2.6-1.754,3.955-2.535s2.759-1.509,4.185-2.168l.109-.051.109.051c1.439.664,2.846,1.393,4.185,2.166s2.663,1.628,3.971,2.559l.1.069.011.119c.142,1.545.215,3.124.215,4.693s-.073,3.155-.218,4.709l-.011.119-.1.069c-1.273.9-2.61,1.755-3.969,2.542-1.321.762-2.734,1.489-4.2,2.159l-.109.05-.109-.05c-1.424-.658-2.827-1.384-4.169-2.158-1.365-.791-2.7-1.646-3.969-2.542l-.1-.069-.011-.119c-.144-1.554-.217-3.139-.217-4.709,0-1.535.078-3.12.231-4.718Z" transform="translate(864.972 -2148.912)" fill="#45a4fd" opacity="0.12"/>
          <path id="Trazado_3432" data-name="Trazado 3432" d="M-854.118,2175.376c1.187-2.058,4.724-2.792,9.462-1.964l.282.05-.076.276a41.453,41.453,0,0,0-1.226,6.394l-.013.113-.092.067a40.582,40.582,0,0,0-4.915,4.26l-.2.205-.184-.221c-3.09-3.693-4.225-7.125-3.034-9.182Z" transform="translate(865.233 -2148.83)" fill="#45a4fd" opacity="0.12"/>
          <path id="Trazado_3433" data-name="Trazado 3433" d="M-845.795,2189.15l.033.585-.456-.365a37.281,37.281,0,0,1-3.346-3.031l-.178-.182.178-.182a37.159,37.159,0,0,1,3.355-3.033l.46-.368-.038.585c-.07,1.072-.1,2.054-.1,2.995,0,.9.033,1.851.1,3Z" transform="translate(865.111 -2149.069)" fill="#45a4fd" opacity="0.12"/>
          <path id="Trazado_3434" data-name="Trazado 3434" d="M-851.083,2187.636l.184-.22.2.2a40.7,40.7,0,0,0,4.917,4.262l.092.067.013.114a41.718,41.718,0,0,0,1,5.54l.487,1.934-.965-1.744a.808.808,0,0,1-.041-.087.084.084,0,0,0-.011-.028,3.884,3.884,0,0,0-5.3-1.443,3.885,3.885,0,0,0-1.663,1.892l-.1.255-.249-.12a3.8,3.8,0,0,1-1.592-1.438c-1.191-2.063-.057-5.5,3.037-9.189Z" transform="translate(865.233 -2149.191)" fill="#45a4fd" opacity="0.12"/>
          <g id="Grupo_1046" data-name="Grupo 1046" transform="translate(0.355)">
            <g id="Grupo_976" data-name="Grupo 976">
              <g id="Grupo_967" data-name="Grupo 967">
                <path id="Trazado_728" data-name="Trazado 728" d="M-818.737,2152.538h-.006a.815.815,0,0,0-.253.159.907.907,0,0,0-.164.261.76.76,0,0,0-.063.3.828.828,0,0,0,.225.552.838.838,0,0,0,.255.161.785.785,0,0,0,.3.065h0a.78.78,0,0,0,.781-.779.78.78,0,0,0-.779-.781.777.777,0,0,0-.3.061Z" transform="translate(863.988 -2148.312)" fill="#45a4fd"/>
                <path id="Trazado_729" data-name="Trazado 729" d="M-813.618,2152.7a.779.779,0,0,0-.847-.161.812.812,0,0,0-.266.167.7.7,0,0,0-.153.245.779.779,0,0,0-.067.308.742.742,0,0,0,.478.712.8.8,0,0,0,.306.066.811.811,0,0,0,.556-.229.83.83,0,0,0,.222-.556.752.752,0,0,0-.062-.293A.829.829,0,0,0-813.618,2152.7Z" transform="translate(863.881 -2148.311)" fill="#45a4fd"/>
                <path id="Trazado_730" data-name="Trazado 730" d="M-809.173,2152.981l-.015-.035a.554.554,0,0,0-.063-.127,1.539,1.539,0,0,0-.1-.126.761.761,0,0,0-.543-.223.784.784,0,0,0-.3.06.78.78,0,0,0-.42,1.02.78.78,0,0,0,1.021.419.781.781,0,0,0,.48-.712,1.1,1.1,0,0,0-.017-.15A.377.377,0,0,0-809.173,2152.981Z" transform="translate(863.773 -2148.312)" fill="#45a4fd"/>
                <path id="Trazado_731" data-name="Trazado 731" d="M-853.51,2194.981a5.593,5.593,0,0,0,2.849,2.324l.149.055.019.158a3.881,3.881,0,0,0,2.859,3.274,4,4,0,0,0,1.018.134,3.869,3.869,0,0,0,3.781-3.022l.039-.171.172-.028c.158-.026.309-.051.472-.08l.218-.04.074.209c1.923,5.407,4.824,8.508,7.961,8.508s6.038-3.1,7.962-8.511l.075-.211.219.042a23.235,23.235,0,0,0,4.118.412c3.581,0,6.084-1.057,7.238-3.056a5.582,5.582,0,0,0,.594-3.623l-.027-.156.126-.1a3.9,3.9,0,0,0,.774-5.46,3.9,3.9,0,0,0-4.152-1.417.182.182,0,0,0-.03.012c-.029.013-.059.023-.09.033l-.162.047-.109-.129-.108-.128c-.064-.078-.13-.157-.2-.235l-.152-.17.148-.174c3.72-4.37,4.955-8.435,3.389-11.153s-5.7-3.678-11.354-2.64l-.217.04-.074-.208c-1.928-5.405-4.831-8.506-7.965-8.506a5.579,5.579,0,0,0-3.433,1.3l-.122.1-.147-.062a3.9,3.9,0,0,0-5.1,2.109,3.9,3.9,0,0,0,.929,4.332l.128.119-.074.2c-.052.138-.1.275-.152.414l-.074.209-.218-.04c-5.645-1.037-9.782-.075-11.35,2.64s-.33,6.781,3.392,11.153l.143.169-.143.169C-853.838,2188.2-855.075,2192.265-853.51,2194.981Zm9.15,2.646a2.351,2.351,0,0,1-2.263,1.735c-.052,0-.1,0-.153-.005a2.34,2.34,0,0,1-2.18-2.49,2.34,2.34,0,0,1,2.491-2.18,2.34,2.34,0,0,1,2.179,2.49A2.423,2.423,0,0,1-844.36,2197.627Zm3.455-1.862-.068-.245a36.994,36.994,0,0,1-.944-4.394l-.089-.585.487.324c.907.6,1.738,1.118,2.543,1.584s1.674.932,2.624,1.41l.524.264-.548.212a37.614,37.614,0,0,1-4.289,1.365Zm13.44,1.763c-1.65,4.519-4.054,7.214-6.434,7.214s-4.777-2.7-6.434-7.214l-.1-.269.277-.072a41.535,41.535,0,0,0,6.147-2.133l.1-.046.1.046a40.875,40.875,0,0,0,6.147,2.131l.278.072Zm1.59-6.4a37.323,37.323,0,0,1-.951,4.416l-.068.245-.247-.063a37.414,37.414,0,0,1-4.3-1.384l-.545-.213.522-.262c.994-.5,1.858-.961,2.644-1.414.759-.438,1.567-.941,2.541-1.581l.487-.321Zm10.236,3.068v.006c-.866,1.5-2.98,2.3-5.9,2.3a20.95,20.95,0,0,1-3.573-.336l-.283-.05.077-.277a40.808,40.808,0,0,0,1.232-6.389l.013-.113.092-.067a42.047,42.047,0,0,0,4.3-3.636l1.419-1.375-1.015,1.7c-.016.025-.033.05-.052.074l-.019.025a3.9,3.9,0,0,0,1.414,5.33,3.9,3.9,0,0,0,1.96.527,3.862,3.862,0,0,0,.494-.032l.274-.036.02.276a3.8,3.8,0,0,1-.451,2.08Zm-8.2-13.517-.016-.275h.367l.074.057a37.615,37.615,0,0,1,3.332,3.034l.176.182-.178.181a37.4,37.4,0,0,1-3.332,3.015l-.453.364.031-.585c.063-1.188.092-2.113.092-3,0-.907-.026-1.85-.092-2.977Zm6.218,5.665a2.347,2.347,0,0,1,2.827-.372l.357.207-.033.023a2.34,2.34,0,0,1,.3,3.295,2.34,2.34,0,0,1-3.295.3,2.338,2.338,0,0,1-.3-3.295,2.073,2.073,0,0,1,.144-.158Zm-7.488-15.184c4.741-.833,8.281-.1,9.469,1.96s.056,5.489-3.032,9.175l-.183.219-.2-.2a41.169,41.169,0,0,0-4.924-4.258l-.092-.067-.013-.113a40.624,40.624,0,0,0-1.23-6.387l-.077-.277Zm-1.783.374.068.245a37.328,37.328,0,0,1,.95,4.418l.088.577-.487-.321c-.966-.636-1.776-1.138-2.546-1.583s-1.644-.912-2.643-1.414l-.982-.493h1.053a36.955,36.955,0,0,1,4.253-1.365Zm-9.114-7.919-.17-.219.229-.156a3.8,3.8,0,0,1,2.042-.66c2.385,0,4.789,2.7,6.44,7.222l.1.269-.278.072a40.66,40.66,0,0,0-6.148,2.127l-.1.046-.1-.046a41.776,41.776,0,0,0-5.3-1.9l-1.792-.511h1.863a.53.53,0,0,1,.1.01h.023a3.882,3.882,0,0,0,3.9-3.86,3.88,3.88,0,0,0-.808-2.392Zm-3.1.007a2.34,2.34,0,0,1,2.34,2.34,2.34,2.34,0,0,1-2.34,2.339,2.339,2.339,0,0,1-2.34-2.339h0a2.344,2.344,0,0,1,2.343-2.34Zm-2.8,12.566a37.265,37.265,0,0,1,.96-4.4l.069-.245.246.063a37.033,37.033,0,0,1,4.279,1.377l.544.213-.521.262c-1.036.522-1.877.975-2.642,1.414-.792.458-1.6.958-2.535,1.574l-.487.322Zm-.336,2.638.1-.069c1.267-.9,2.6-1.755,3.955-2.535s2.759-1.509,4.185-2.168l.109-.051.109.051c1.439.664,2.847,1.393,4.185,2.166s2.663,1.628,3.97,2.559l.1.069.011.119c.142,1.546.215,3.125.215,4.693s-.073,3.155-.218,4.709l-.011.119-.1.069c-1.273.9-2.61,1.755-3.969,2.542-1.321.762-2.734,1.489-4.2,2.159l-.109.05-.109-.05c-1.424-.658-2.827-1.384-4.169-2.158-1.365-.791-2.7-1.646-3.969-2.542l-.1-.069-.011-.119c-.144-1.554-.217-3.139-.217-4.709,0-1.535.078-3.12.231-4.718Zm-9.911-5.7c1.187-2.058,4.724-2.792,9.462-1.963l.282.05-.076.276a41.442,41.442,0,0,0-1.226,6.394l-.013.113-.092.067a40.6,40.6,0,0,0-4.915,4.26l-.2.205-.184-.22c-3.09-3.693-4.225-7.125-3.034-9.182Zm8.2,13.536.033.585-.456-.365a37.288,37.288,0,0,1-3.346-3.031l-.178-.182.178-.182a37.176,37.176,0,0,1,3.355-3.033l.46-.368-.038.585c-.07,1.072-.1,2.054-.1,2.995,0,.9.033,1.851.1,3Zm-5.167-1.636.184-.22.2.2a40.665,40.665,0,0,0,4.917,4.262l.092.067.013.113a41.7,41.7,0,0,0,1,5.54l.487,1.934-.965-1.744a.816.816,0,0,1-.041-.088.084.084,0,0,0-.011-.028,3.884,3.884,0,0,0-5.3-1.443,3.885,3.885,0,0,0-1.663,1.892l-.1.256-.249-.12a3.8,3.8,0,0,1-1.592-1.438c-1.191-2.063-.057-5.5,3.037-9.189Z" transform="translate(864.868 -2148.526)" fill="#45a4fd"/>
                <path id="Trazado_732" data-name="Trazado 732" d="M-833.529,2190.079a5.987,5.987,0,0,0,5.986-5.987,5.986,5.986,0,0,0-5.986-5.986,5.986,5.986,0,0,0-5.986,5.986A6,6,0,0,0-833.529,2190.079Zm0-10.412a4.425,4.425,0,0,1,4.425,4.425,4.425,4.425,0,0,1-4.425,4.425,4.425,4.425,0,0,1-4.425-4.425,4.428,4.428,0,0,1,4.425-4.424Z" transform="translate(864.499 -2148.956)" fill="#45a4fd"/>
                <path id="Trazado_733" data-name="Trazado 733" d="M-812.31,2148.2h-43.725a9.134,9.134,0,0,0-9.109,9.11v43.726a9.135,9.135,0,0,0,9.11,9.11h43.724a9.137,9.137,0,0,0,9.109-9.11v-43.726A9.135,9.135,0,0,0-812.31,2148.2Zm7.547,52.836a7.567,7.567,0,0,1-7.546,7.547h-43.725a7.569,7.569,0,0,1-7.547-7.547v-42.946h58.821Zm-.031-44.506h-58.755l.043-.3a7.561,7.561,0,0,1,7.472-6.469h43.724a7.561,7.561,0,0,1,7.471,6.469Z" transform="translate(865.144 -2148.204)" fill="#45a4fd"/>
              </g>
            </g>
          </g>
        </g>
      </g>
    </g>
  </g>
</svg>
