<svg xmlns="http://www.w3.org/2000/svg" width="63.137" height="62.851" viewBox="0 0 63.137 62.851">
  <g id="Consultorías_Tecnológicas_" data-name="Consultorías Tecnológicas " transform="translate(23802 15779)">
    <g id="Grupo_2440" data-name="Grupo 2440" transform="translate(-23802 -15780)">
      <g id="Grupo_1649" data-name="Grupo 1649" transform="translate(0 1)">
        <g id="Grupo_1333" data-name="Grupo 1333">
          <path id="Trazado_3435" data-name="Trazado 3435" d="M-230.105,2195.7v-1.86a4.524,4.524,0,0,1,4.539-4.508,4.524,4.524,0,0,1,4.508,4.508v1.86a4.524,4.524,0,0,1-4.54,4.507,4.523,4.523,0,0,1-4.507-4.507Z" transform="translate(275.153 -2149.4)" fill="#45a4fd" opacity="0.12"/>
          <path id="Trazado_3436" data-name="Trazado 3436" d="M-261.786,2187.339v-1.86a4.524,4.524,0,0,1,4.539-4.508,4.524,4.524,0,0,1,4.508,4.508v1.86a4.524,4.524,0,0,1-4.54,4.507A4.523,4.523,0,0,1-261.786,2187.339Z" transform="translate(277.693 -2148.73)" fill="#45a4fd" opacity="0.12"/>
          <path id="Trazado_3437" data-name="Trazado 3437" d="M-253.932,2194.725l-3.219,5.58-3.219-5.58,1.223-.425h3.985Z" transform="translate(277.579 -2149.798)" fill="#45a4fd" opacity="0.12"/>
          <path id="Trazado_3438" data-name="Trazado 3438" d="M-268.117,2202.085a6.758,6.758,0,0,1,4.54-6.382l1.28-.444,3.939,6.835a.685.685,0,0,0,.935.252.692.692,0,0,0,.252-.252l3.939-6.835,1.279.444a6.759,6.759,0,0,1,4.54,6.382v2.952h-20.7Z" transform="translate(278.2 -2149.875)" fill="#45a4fd" opacity="0.12"/>
          <path id="Trazado_3439" data-name="Trazado 3439" d="M-240.61,2207.715a8.063,8.063,0,0,0-.588,3.03v2.952h-37.568v-6.319h38.293Z" transform="translate(279.054 -2150.846)" fill="#45a4fd" opacity="0.12"/>
          <path id="Trazado_3440" data-name="Trazado 3440" d="M-215.732,2213.315h-20.7v-2.952a6.76,6.76,0,0,1,4.54-6.382l3.819-1.326h3.985l3.819,1.326a6.76,6.76,0,0,1,4.54,6.382Z" transform="translate(275.661 -2150.468)" fill="#45a4fd" opacity="0.12"/>
          <path id="Trazado_3441" data-name="Trazado 3441" d="M-216.992,2173.861a4.28,4.28,0,0,1-4.275,4.275h-12.772a.684.684,0,0,0-.684.685v4.549l-5.032-5.032a.679.679,0,0,0-.484-.2H-247.8a4.281,4.281,0,0,1-4.276-4.275v-12.9a4.28,4.28,0,0,1,4.276-4.275h26.535a4.281,4.281,0,0,1,4.275,4.276Z" transform="translate(276.915 -2146.783)" fill="#45a4fd" opacity="0.12"/>
          <path id="Trazado_3442" data-name="Trazado 3442" d="M-252.463,2168.759c.011-.026.018-.053.029-.08-.046-1.545-.068-3.1-.039-4.642-.032-.8-.065-1.608-.079-2.412a5.073,5.073,0,0,1,.12-1.19,8.831,8.831,0,0,1,.155-2.117c.837-3.941,4.124-5.551,7.755-5.146A4.226,4.226,0,0,0-248.6,2150h-26.249a4.236,4.236,0,0,0-4.23,4.229v12.758a4.236,4.236,0,0,0,4.23,4.229h3.8a.669.669,0,0,1,.478.2l4.977,4.979v-4.5a.679.679,0,0,1,.677-.677h11.934A5.907,5.907,0,0,1-252.463,2168.759Z" transform="translate(279.079 -2146.247)" fill="#45a4fd" opacity="0.12"/>
          <g id="Grupo_1047" data-name="Grupo 1047" transform="translate(0.752)">
            <g id="Grupo_975" data-name="Grupo 975">
              <g id="Grupo_968" data-name="Grupo 968">
                <path id="Trazado_734" data-name="Trazado 734" d="M-221.342,2198.833l-2.96-1.028.35-.276a5.865,5.865,0,0,0,2.242-4.619v-1.863a5.892,5.892,0,0,0-5.892-5.893,5.892,5.892,0,0,0-5.892,5.893v1.859a5.868,5.868,0,0,0,2.243,4.62l.35.276-2.961,1.028a8.094,8.094,0,0,0-3.863,2.839l-.074.1h-7.225v-2.949a8.131,8.131,0,0,0-5.46-7.675l-2.961-1.027.35-.276a5.863,5.863,0,0,0,2.243-4.62v-1.86a5.892,5.892,0,0,0-5.892-5.892,5.892,5.892,0,0,0-5.892,5.892h0v1.86a5.865,5.865,0,0,0,2.242,4.62l.35.276-2.96,1.027a8.129,8.129,0,0,0-5.461,7.675v2.952h-9.11a.684.684,0,0,0-.684.684v7.688a.685.685,0,0,0,.684.684h38.69c.03,0,.062,0,.092-.007h.063a.762.762,0,0,0,.092.007h22.076a.686.686,0,0,0,.685-.684v-3.636A8.132,8.132,0,0,0-221.342,2198.833Zm-10.784-5.926v-1.859a4.524,4.524,0,0,1,4.539-4.508,4.524,4.524,0,0,1,4.508,4.508v1.859a4.524,4.524,0,0,1-4.54,4.508,4.524,4.524,0,0,1-4.507-4.508Zm-29.141-7.688v-1.86a4.524,4.524,0,0,1,4.539-4.508,4.525,4.525,0,0,1,4.508,4.508v1.86a4.524,4.524,0,0,1-4.54,4.507A4.523,4.523,0,0,1-261.267,2185.219Zm7.74,6.318-3.219,5.579-3.219-5.579,1.223-.425h3.985Zm-13.564,7.283a6.759,6.759,0,0,1,4.54-6.382l1.28-.444,3.939,6.835a.685.685,0,0,0,.935.252.7.7,0,0,0,.252-.252l3.939-6.835,1.279.444a6.76,6.76,0,0,1,4.54,6.382v2.952h-20.7Zm28.36,4.658a8.065,8.065,0,0,0-.588,3.03v2.952h-37.568v-6.319h38.293Zm21.485,5.979h-20.7V2206.5a6.76,6.76,0,0,1,4.54-6.382l3.819-1.326h3.985l3.819,1.326a6.76,6.76,0,0,1,4.54,6.382Z" transform="translate(278.261 -2148.449)" fill="#45a4fd"/>
                <path id="Trazado_3443" data-name="Trazado 3443" d="M-221.526,2152.616h-18.906v-1.052a5.651,5.651,0,0,0-5.645-5.645h-26.537a5.65,5.65,0,0,0-5.644,5.645v2.057a.684.684,0,0,0,.684.685.684.684,0,0,0,.684-.685v-2.057a4.28,4.28,0,0,1,4.275-4.275h26.537a4.28,4.28,0,0,1,4.275,4.275v1.052h-6.255a5.651,5.651,0,0,0-5.644,5.645v10.476h-9.986a.684.684,0,0,0-.684.685v4.549l-5.031-5.033a.679.679,0,0,0-.484-.2h-2.728a4.28,4.28,0,0,1-4.275-4.275v-6.515a.685.685,0,0,0-.684-.685.685.685,0,0,0-.684.685v6.515a5.652,5.652,0,0,0,5.644,5.645h2.445l6,6a.68.68,0,0,0,.482.2.62.62,0,0,0,.264-.051.684.684,0,0,0,.422-.632V2170.1h9.295v1.052a5.651,5.651,0,0,0,5.644,5.644h7.281l6,6a.685.685,0,0,0,.968,0,.687.687,0,0,0,.2-.484V2176.8h12.089a5.653,5.653,0,0,0,5.645-5.644V2158.26A5.651,5.651,0,0,0-221.526,2152.616Zm4.275,18.542a4.28,4.28,0,0,1-4.275,4.275H-234.3a.684.684,0,0,0-.684.685v4.549l-5.031-5.033a.679.679,0,0,0-.484-.2h-7.564a4.281,4.281,0,0,1-4.276-4.275v-12.9a4.28,4.28,0,0,1,4.276-4.275h26.535a4.281,4.281,0,0,1,4.275,4.276Z" transform="translate(278.261 -2145.92)" fill="#45a4fd"/>
              </g>
            </g>
          </g>
        </g>
      </g>
    </g>
  </g>
</svg>
