<svg xmlns="http://www.w3.org/2000/svg" width="62.84" height="56.96" viewBox="0 0 62.84 56.96">
  <g id="Transformación_en_la_Nube" data-name="Transformación en la Nube" transform="translate(23803 15426.999)">
    <g id="Grupo_2435" data-name="Grupo 2435" transform="translate(-23803 -15427)">
      <ellipse id="Elipse_503" data-name="Elipse 503" cx="14" cy="14.5" rx="14" ry="14.5" transform="translate(14.605 27.961)" fill="#45a4fd" opacity="0.21"/>
      <g id="Grupo_1336" data-name="Grupo 1336">
        <path id="Trazado_3461" data-name="Trazado 3461" d="M-227.124,2580.825a.852.852,0,0,1-.66-.684,14.888,14.888,0,0,0-7.736-10.513,14.89,14.89,0,0,0-20.1,6.279.87.87,0,0,1-.8.458l-.265-.017c-.145-.01-.293-.02-.445-.02a11.766,11.766,0,0,0-11.642,10.208.854.854,0,0,1-.6.706,9.65,9.65,0,0,0-6.843,9.213,9.65,9.65,0,0,0,9.631,9.668h3.919c-.033-.413-.063-.827-.063-1.249a15.242,15.242,0,0,1,15.243-15.243,15.242,15.242,0,0,1,15.243,15.243c0,.422-.029.836-.063,1.249h2.671a12.846,12.846,0,0,0,7.821-2.834,12.809,12.809,0,0,0,4.467-7.231A12.8,12.8,0,0,0-227.124,2580.825Z" transform="translate(276.215 -2564.242)" fill="#45a4fd" opacity="0.12"/>
        <g id="Grupo_1048" data-name="Grupo 1048" transform="translate(0.242)">
          <g id="Grupo_972" data-name="Grupo 972">
            <g id="Grupo_971" data-name="Grupo 971">
              <path id="Trazado_743" data-name="Trazado 743" d="M-224.124,2577.282l-.116-.031-.026-.116a16.594,16.594,0,0,0-19.831-12.547,16.591,16.591,0,0,0-10.736,7.9l-.058.1h-.269a13.488,13.488,0,0,0-13.228,11.045l-.021.111-.105.038a11.355,11.355,0,0,0-6.762,14.565,11.355,11.355,0,0,0,10.662,7.454h.853V2604.1h-.853a9.65,9.65,0,0,1-9.631-9.667,9.65,9.65,0,0,1,6.843-9.214.854.854,0,0,0,.6-.706,11.765,11.765,0,0,1,11.642-10.208c.151,0,.3.01.444.02l.265.017a.872.872,0,0,0,.8-.458,14.89,14.89,0,0,1,20.1-6.279,14.888,14.888,0,0,1,7.736,10.513.852.852,0,0,0,.66.684,12.8,12.8,0,0,1,9.777,15.234,12.81,12.81,0,0,1-4.467,7.231,12.849,12.849,0,0,1-7.821,2.834v1.707a14.506,14.506,0,0,0,14.291-14.718,14.505,14.505,0,0,0-10.758-13.8Z" transform="translate(275.969 -2564.18)" fill="#45a4fd"/>
              <path id="Trazado_744" data-name="Trazado 744" d="M-234.33,2592.326l-1.2,1.2a13.86,13.86,0,0,1-.247,19.6,13.859,13.859,0,0,1-19.6-.247,13.858,13.858,0,0,1,.247-19.6,13.858,13.858,0,0,1,7.4-3.748l.483-.081-2.54,3.416,1.371,1.018,3.639-4.9a.853.853,0,0,0-.175-1.194l-4.9-3.639-1.019,1.371,3.074,2.284-.445.082a15.543,15.543,0,0,0-12.5,18.084,15.543,15.543,0,0,0,18.084,12.495,15.542,15.542,0,0,0,12.495-18.083,15.538,15.538,0,0,0-4.166-8.061Z" transform="translate(275.72 -2564.512)" fill="#45a4fd"/>
            </g>
          </g>
        </g>
      </g>
    </g>
  </g>
</svg>
