<svg xmlns="http://www.w3.org/2000/svg" xmlns:xlink="http://www.w3.org/1999/xlink" width="188" height="86" viewBox="0 0 188 86">
  <defs>
    <clipPath id="clip-path">
      <path id="Trazado_3" data-name="Trazado 3" d="M1057.729-89.957v-.019a32.9,32.9,0,0,0-3.8-9.631,33,33,0,0,1,3.8,9.651" transform="translate(-1053.926 99.608)" fill="#fff"/>
    </clipPath>
    <clipPath id="clip-path-2">
      <path id="Trazado_8" data-name="Trazado 8" d="M1054.547-82.185h0c.025,0,.036.006.03,0s-.006,0-.028,0" transform="translate(-1054.545 82.185)" fill="#fff"/>
    </clipPath>
    <clipPath id="clip-path-3">
      <path id="Trazado_9" data-name="Trazado 9" d="M1055.971-82.12l.106.021c-.052-.009-.163-.034-.33-.066l.224.045m-4.551-.139a15.606,15.606,0,0,1,4.327.094,13.183,13.183,0,0,0-2.382-.2c-.564,0-1.213.028-1.945.1" transform="translate(-1051.42 82.36)" fill="#fff"/>
    </clipPath>
  </defs>
  <g id="Logo_linktic_footer" data-name="Logo linktic footer" transform="translate(-154 -45)">
    <g id="Grupo_1990" data-name="Grupo 1990">
      <g id="Grupo_1281" data-name="Grupo 1281" transform="translate(14 29)">
        <g id="Grupo_1244" data-name="Grupo 1244" transform="translate(140 16)">
          <g id="Grupo_7" data-name="Grupo 7" transform="translate(0 0)">
            <path id="Trazado_1" data-name="Trazado 1" d="M1057.051-82.171l0,0,0,0m-.421-.036a10.028,10.028,0,0,0-7.13,3.071,10,10,0,0,0,1.183,3.41c.07-.1.143-.2.215-.3.094-.133.186-.267.282-.4q.3-.407.609-.791c.118-.146.233-.283.351-.422s.238-.282.358-.419c.154-.173.3-.343.456-.506s.313-.337.467-.5c.133-.137.261-.266.392-.392.093-.092.184-.18.275-.268.215-.2.419-.4.619-.576.079-.072.16-.145.235-.212.121-.106.233-.2.346-.3.076-.067.149-.127.224-.188.161-.134.31-.257.452-.37.075-.058.148-.118.216-.17l.215-.164c.075-.057.14-.106.2-.152s.124-.091.178-.13.113-.081.155-.109.049-.036.069-.048l.051-.036-.024,0h0c-.022,0-.061-.01-.11-.021-.089,0-.177-.012-.268-.012h-.016" transform="translate(-1013.571 140.382)" fill="#fff"/>
            <path id="Trazado_2" data-name="Trazado 2" d="M1063.736-89.056l-.067-.112.067.112m-.067-.112,0,0,0,0M1041.405-120.5a21.853,21.853,0,0,0-3.938,3.287,19.6,19.6,0,0,0-3.581,4.97c5.622,5.893,11.49,7.841,17.08,10.911.164.09.325.182.486.273.2.112.392.216.588.33l-.018.021a33.3,33.3,0,0,1,11.645,11.542c-.2-.334-.4-.668-.615-.993a8.617,8.617,0,0,1,.639-1.238c.144-.41.307-.8.479-1.174a30.847,30.847,0,0,0-4.815-6.839l.021-.013c-.142-.152-.288-.3-.432-.446-.119-.124-.237-.249-.36-.371-5.153-5.209-11.148-8.984-14.516-19.725-.282-1.058-.93-1.238-.93-1.238-.583.273-1.733.7-1.733.7" transform="translate(-1021.247 121.209)" fill="#fff"/>
            <g id="Grupo_2" data-name="Grupo 2" transform="translate(42.531 32.22)">
              <g id="Grupo_1" data-name="Grupo 1" clip-path="url(#clip-path)">
                <rect id="Rectángulo_1" data-name="Rectángulo 1" width="9.134" height="9.826" transform="translate(-4.758 4.021) rotate(-40.2)" fill="#fff"/>
              </g>
            </g>
            <path id="Trazado_4" data-name="Trazado 4" d="M1032.639-119.282c-.522.462-1.583,1.265-1.583,1.265a23.684,23.684,0,0,0-3.073,4.625,21.391,21.391,0,0,0-1.526,3.7c.289.591.655,1.286,1.092,2.07.354.564.694,1.208,1.132,1.835.419.641.873,1.311,1.389,1.967.486.686,1.066,1.32,1.638,1.991s1.235,1.266,1.869,1.9c.7.549,1.341,1.19,2.078,1.671a17.352,17.352,0,0,0,2.194,1.374,13.364,13.364,0,0,0,2.206,1.022,12.256,12.256,0,0,0,2.09.667l1.829.394c.556.036,1.043.069,1.442.1l1.268.081-1.268.067-1.469.073-1.9-.182a12.644,12.644,0,0,1-2.233-.436,14.19,14.19,0,0,1-2.426-.8,18.626,18.626,0,0,1-2.48-1.178c-.843-.422-1.594-1.007-2.409-1.514-.747-.585-1.523-1.154-2.221-1.782s-1.39-1.25-1.99-1.914c-.632-.638-1.2-1.292-1.726-1.924-.376-.424-.7-.849-1.011-1.262a21,21,0,0,0-.106,3.474,23.3,23.3,0,0,0,.365,3.625,23.313,23.313,0,0,0,.9,3.343c.119.1.234.2.361.312.467.358.95.788,1.508,1.171.546.4,1.132.817,1.763,1.2.618.419,1.3.765,1.979,1.146s1.417.668,2.14,1c.747.24,1.484.573,2.243.743a15.425,15.425,0,0,0,2.251.459,11.827,11.827,0,0,0,2.152.163c.189,0,.379,0,.565,0a6.453,6.453,0,0,0,1.38-.091l1.645-.243c.476-.143.891-.267,1.23-.371l1.083-.327-1.029.465c-.331.149-.734.33-1.194.538l-1.639.465a11.386,11.386,0,0,1-2,.362,12.559,12.559,0,0,1-2.278.127,16.39,16.39,0,0,1-2.446-.175c-.838-.078-1.654-.319-2.5-.477-.813-.245-1.644-.467-2.43-.762s-1.563-.589-2.279-.947c-.115-.051-.212-.11-.325-.164a23.556,23.556,0,0,0,4.06,4.942,34.1,34.1,0,0,0,5.743,3.889c.2.1.4.219.6.312l.006.01a41.705,41.705,0,0,0,18.648,4.576c6.791.577,11.678,5.473,13.631,11.543a33.079,33.079,0,0,0,.38-14.082,33.092,33.092,0,0,0-15.784-22.407l.018-.021c-.2-.113-.391-.218-.588-.33-.161-.091-.322-.183-.486-.273-6.955-3.818-14.342-5.889-21.148-16-.6-.987-1.312-1-1.344-1h0" transform="translate(-1025.412 122.156)" fill="#fff"/>
            <path id="Trazado_5" data-name="Trazado 5" d="M1055.912-102.074l.055.04a12.728,12.728,0,0,0-1.888,3.55,8.616,8.616,0,0,0-.639,1.238,32.889,32.889,0,0,1,4.752,11.858,33.054,33.054,0,0,1-.379,14.082h0s12.024-2.847,10.112-19.3a18.864,18.864,0,0,1,3.833-9.5c2-.471,4.575-3.11,4.575-3.11s-1.24-1.89-4.861-2.2a14.63,14.63,0,0,0-6.008-1.386,12.367,12.367,0,0,0-9.552,4.73" transform="translate(-1011.634 128.29)" fill="#fff"/>
            <path id="Trazado_6" data-name="Trazado 6" d="M1056.672-82.132c.1,0,.189.01.285.012a17.691,17.691,0,0,0-7.467.336,10.266,10.266,0,0,0-.076,1.274,10.075,10.075,0,0,0,.128,1.45,10.028,10.028,0,0,1,7.13-3.071" transform="translate(-1013.613 140.307)" fill="#fff"/>
            <path id="Trazado_7" data-name="Trazado 7" d="M1051.615-76.738a10.033,10.033,0,0,1-1.183-3.41,10.023,10.023,0,0,0-2.827,7.091,9.992,9.992,0,0,0,.931,4.111,17.939,17.939,0,0,1,3.293-8.095c-.072.1-.145.2-.215.3" transform="translate(-1014.503 141.394)" fill="#fff"/>
            <g id="Grupo_4" data-name="Grupo 4" transform="translate(43.454 58.208)">
              <g id="Grupo_3" data-name="Grupo 3" clip-path="url(#clip-path-2)">
                <rect id="Rectángulo_2" data-name="Rectángulo 2" width="0.031" height="0.025" transform="matrix(0.8, -0.6, 0.6, 0.8, -0.003, 0.002)" fill="#fff"/>
              </g>
            </g>
            <g id="Grupo_6" data-name="Grupo 6" transform="translate(38.793 57.947)">
              <g id="Grupo_5" data-name="Grupo 5" clip-path="url(#clip-path-3)">
                <rect id="Rectángulo_3" data-name="Rectángulo 3" width="3.954" height="3.099" transform="matrix(0.8, -0.6, 0.6, 0.8, -0.183, 0.017)" fill="#fff"/>
              </g>
            </g>
            <path id="Trazado_10" data-name="Trazado 10" d="M1052.143-80.829c-19.9,6.827-14.84,24.01-14.231,25.357a10.142,10.142,0,0,0,4.033,1,13.656,13.656,0,0,1-.219-1.426,15.092,15.092,0,0,1-.063-2.609c.063-.443.079-.885.18-1.313a8.607,8.607,0,0,1,.319-1.237,6.6,6.6,0,0,1,.44-1.1,5.94,5.94,0,0,1,.51-.926l.5-.732.466-.5.4-.433s-.124.176-.341.48l-.388.547c-.117.23-.248.489-.392.771a5.6,5.6,0,0,0-.37.946,6.18,6.18,0,0,0-.277,1.089,8.061,8.061,0,0,0-.146,1.187c-.042.4,0,.823-.006,1.232a13.966,13.966,0,0,0,.373,2.39,14,14,0,0,0,.491,1.615c2.149-.136,4.273-.694,6.412-1.037-.037-.07-.078-.128-.114-.2a16.9,16.9,0,0,1-1.126-2.694c-.115-.486-.279-.955-.348-1.441a9.661,9.661,0,0,1-.17-1.42,7.463,7.463,0,0,1,.01-1.33,6.647,6.647,0,0,1,.155-1.174c.084-.355.16-.682.227-.97.107-.276.2-.515.28-.713.154-.392.243-.616.243-.616l-.17.64c-.054.2-.12.447-.194.728-.031.289-.068.615-.109.97a6.266,6.266,0,0,0-.016,1.141,6.979,6.979,0,0,0,.137,1.26,9.347,9.347,0,0,0,.313,1.311c.115.443.325.868.48,1.3a15.8,15.8,0,0,0,1.34,2.378c.152.231.312.434.47.644a10.843,10.843,0,0,1,6.915,1.365c-3.868-5.039-4.848-9.622-4.36-13.55h0A9.988,9.988,0,0,1,1052.87-72a10.02,10.02,0,0,1,2.827-7.091,9.851,9.851,0,0,1-.128-1.448,10.614,10.614,0,0,1,.076-1.275,25.185,25.185,0,0,1,2.913-.474,28.485,28.485,0,0,0-6.414,1.463" transform="translate(-1019.767 140.34)" fill="#fff"/>
          </g>
        </g>
      </g>
    </g>
    <g id="Grupo_1996" data-name="Grupo 1996">
      <g id="Grupo_1995" data-name="Grupo 1995">
        <path id="Trazado_3543" data-name="Trazado 3543" d="M1068.843-69.139V-86.49h3.265v14.158h8.847v3.193Z" transform="translate(-850.063 179.277)" fill="#fff"/>
        <rect id="Rectángulo_674" data-name="Rectángulo 674" width="3.266" height="17.351" transform="translate(237.893 92.787)" fill="#fff"/>
        <rect id="Rectángulo_675" data-name="Rectángulo 675" width="3.266" height="17.351" transform="translate(311.529 92.787)" fill="#fff"/>
        <path id="Trazado_3544" data-name="Trazado 3544" d="M1143.226-69.807a8.871,8.871,0,0,1-2.754-1.866,8,8,0,0,1-1.866-2.776,8.381,8.381,0,0,1-.7-3.381,8.713,8.713,0,0,1,8.7-8.68,8.654,8.654,0,0,1,3.9.934,8.558,8.558,0,0,1,3.055,2.567l.373.467-2.5,1.841-.35-.465a5.5,5.5,0,0,0-4.478-2.239,5.6,5.6,0,0,0-5.6,5.576,5.62,5.62,0,0,0,5.6,5.62,5.566,5.566,0,0,0,4.478-2.239l.35-.443,2.472,1.818-.373.467a8.545,8.545,0,0,1-3.055,2.567,8.516,8.516,0,0,1-3.872.91,8.825,8.825,0,0,1-3.383-.677" transform="translate(-816.111 179.268)" fill="#fff"/>
        <path id="Trazado_3545" data-name="Trazado 3545" d="M1099.494-82.411v7.277l-7.677-11.356h-3.169v17.351h3.266v-11.38l7.7,11.38h3.143V-82.411Z" transform="translate(-840.326 179.277)" fill="#fff"/>
        <path id="Trazado_3546" data-name="Trazado 3546" d="M1109-78.194l8.815-8.3h-4.679l-6.922,6.506V-86.49h-3.241v17.351h3.241v-6.433L1109-78.2Z" transform="translate(-833.283 179.277)" fill="#fff"/>
        <path id="Trazado_3547" data-name="Trazado 3547" d="M1110.771-80.628l-2.45,2.28,4.508,6.327h4.07Z" transform="translate(-830.656 182.158)" fill="#fff"/>
        <path id="Trazado_3548" data-name="Trazado 3548" d="M1122.843-69.164V-83.3h-4.265v-3.217h11.795V-83.3h-4.264v14.134Z" transform="translate(-825.613 179.266)" fill="#fff"/>
      </g>
      <text id="Evolucionamos_contigo_" data-name="Evolucionamos contigo " transform="translate(218 128)" fill="#fff" font-size="10" font-family="Montserrat-Medium, Montserrat" font-weight="500" letter-spacing="0.006em"><tspan x="0" y="0">Evolucionamos contigo </tspan></text>
    </g>
  </g>
</svg>
