<svg xmlns="http://www.w3.org/2000/svg" width="65.066" height="65.091" viewBox="0 0 65.066 65.091">
  <g id="Infraestructura_TI" data-name="Infraestructura TI" transform="translate(24358 15435)">
    <g id="Grupo_2442" data-name="Grupo 2442" transform="translate(-25104.824 -18513)">
      <g id="Grupo_1657" data-name="Grupo 1657" transform="translate(746.824 3078)">
        <g id="Grupo_1335" data-name="Grupo 1335">
          <g id="Grupo_1049" data-name="Grupo 1049" transform="translate(0.428)">
            <g id="Grupo_973" data-name="Grupo 973">
              <g id="Grupo_970" data-name="Grupo 970">
                <path id="Trazado_739" data-name="Trazado 739" d="M-841.263,2585.555a4.5,4.5,0,0,1,4.2-4.2v-1.527a6.026,6.026,0,0,0-5.723,5.724Z" transform="translate(865.949 -2558.766)" fill="#45a4fd"/>
                <path id="Trazado_740" data-name="Trazado 740" d="M-844.977,2609.1h1.541a2.869,2.869,0,0,0-2.56-2.56v1.542A1.345,1.345,0,0,1-844.977,2609.1Z" transform="translate(865.998 -2559.177)" fill="#45a4fd"/>
                <path id="Trazado_741" data-name="Trazado 741" d="M-803.776,2572.135H-805.3v4.206h-2.683v-7.36h-1.524v7.361h-2.682v-10.516h-1.52v11.068l-1.71,2.855-.231-.1a14.61,14.61,0,0,0-5.711-1.2,14.4,14.4,0,0,0-6.773,1.7l-.235.126-.144-.225a10.417,10.417,0,0,0-1.875-2.187l-.2-.174,4.857-6.68.215.1a4.893,4.893,0,0,0,2.052.457,4.99,4.99,0,0,0,5.012-4.969,4.99,4.99,0,0,0-4.968-5.012,4.99,4.99,0,0,0-5.012,4.969,4.986,4.986,0,0,0,1.307,3.388l.161.175-4.862,6.667-.225-.13a10.159,10.159,0,0,0-5.086-1.362,9.618,9.618,0,0,0-1.023.061l-.319.032v-7.089l.2-.069a2.865,2.865,0,0,0,1.749-3.657,2.866,2.866,0,0,0-3.657-1.749,2.865,2.865,0,0,0-1.748,3.657,2.865,2.865,0,0,0,1.748,1.749l.2.069v7.424l-.2.064a10.205,10.205,0,0,0-4.452,2.813l-.2.223-12.453-12.453.13-.2a4.981,4.981,0,0,0-1.408-6.9,4.981,4.981,0,0,0-6.9,1.408,4.981,4.981,0,0,0,1.408,6.9,4.984,4.984,0,0,0,5.5,0l.2-.131,12.613,12.613-.118.2a10.008,10.008,0,0,0-1.412,4.243l-.026.261H-855.4l-.068-.2a2.866,2.866,0,0,0-3.656-1.748,2.865,2.865,0,0,0-1.747,3.657,2.865,2.865,0,0,0,3.656,1.747,2.864,2.864,0,0,0,1.747-1.747l.068-.2h8.074l.026.261a10.127,10.127,0,0,0,5.514,8.074l.234.119-2.82,7.211-.254-.075a7,7,0,0,0-8.032,3.159l-.145.245-5.733-3.277.036-.2a2.822,2.822,0,0,0,.053-.506,2.866,2.866,0,0,0-2.866-2.865,2.865,2.865,0,0,0-2.864,2.865,2.864,2.864,0,0,0,2.864,2.865,2.826,2.826,0,0,0,1.859-.7l.155-.133,5.92,3.381-.055.214a6.961,6.961,0,0,0,1.182,5.966l.152.2-4.648,4.647-.184-.089a2.827,2.827,0,0,0-1.228-.286,2.888,2.888,0,0,0-2.913,2.865,2.89,2.89,0,0,0,2.865,2.912,2.889,2.889,0,0,0,2.912-2.866,2.9,2.9,0,0,0-.286-1.275l-.089-.184,4.646-4.646.2.151a6.978,6.978,0,0,0,4.229,1.413,7.127,7.127,0,0,0,6.762-5.006l.071-.232,5.038.63.042.2a2.89,2.89,0,0,0,3.379,2.3,2.891,2.891,0,0,0,2.3-3.38,2.891,2.891,0,0,0-3.379-2.3,2.892,2.892,0,0,0-2.017,1.491l-.094.177-5.047-.631.011-.266v-.058a7.139,7.139,0,0,0-3.263-5.947l-.2-.128,2.849-7.286.252.071a10.184,10.184,0,0,0,2.757.38,10.372,10.372,0,0,0,1.342-.1l.266-.036.056.262a14.493,14.493,0,0,0,14.109,11.439,14.3,14.3,0,0,0,3.807-.522l.218-.06L-809.3,2621a4.111,4.111,0,0,0,3.577,2.068,4.069,4.069,0,0,0,4.054-4.054,3.913,3.913,0,0,0-.58-2.082l-8.554-14.258.144-.158a14.405,14.405,0,0,0-1-20.348,14.406,14.406,0,0,0-2.149-1.61l-.244-.15,1.535-2.56h10.848v-1.525h-2.1Zm-19.693-8.991a3.446,3.446,0,0,1,3.446,3.446,3.446,3.446,0,0,1-3.446,3.446,3.389,3.389,0,0,1-2.029-.669,3.44,3.44,0,0,1-.754-4.805,3.439,3.439,0,0,1,2.784-1.414Zm-37.854,3.733a3.446,3.446,0,0,1-3.446-3.446,3.445,3.445,0,0,1,3.446-3.446,3.446,3.446,0,0,1,3.446,3.446h0a3.447,3.447,0,0,1-3.443,3.447Zm3.151,19.979a1.341,1.341,0,0,1-1.342-1.34,1.34,1.34,0,0,1,1.339-1.342,1.341,1.341,0,0,1,1.343,1.34h0a1.344,1.344,0,0,1-1.333,1.342Zm-3.151,15.773a1.342,1.342,0,0,1-1.342-1.341,1.341,1.341,0,0,1,1.341-1.341,1.34,1.34,0,0,1,1.341,1.341h0a1.343,1.343,0,0,1-1.337,1.342Zm3.151,18.928a1.343,1.343,0,0,1-1.377-1.3,1.341,1.341,0,0,1,1.3-1.376h.073a1.3,1.3,0,0,1,.956.41,1.286,1.286,0,0,1,.385.931,1.342,1.342,0,0,1-1.334,1.341Zm26.29-12.146a1.341,1.341,0,0,1,1.342,1.34,1.341,1.341,0,0,1-1.34,1.342,1.342,1.342,0,0,1-1.342-1.34h0a1.343,1.343,0,0,1,1.344-1.34Zm-9.175-.762a5.552,5.552,0,0,1-5.546,5.546,5.546,5.546,0,0,1-5.556-5.536,5.546,5.546,0,0,1,5.536-5.557,5.533,5.533,0,0,1,2.336.511l.016.006a5.566,5.566,0,0,1,3.221,5.031Zm.474-43.114a1.341,1.341,0,0,1,1.341-1.341,1.341,1.341,0,0,1,1.341,1.341,1.341,1.341,0,0,1-1.341,1.341h0a1.343,1.343,0,0,1-1.335-1.34Zm4.784,27.341c0,.3.011.612.031.94l.02.272-.27.034a9.67,9.67,0,0,1-1.194.077,8.376,8.376,0,0,1-3.1-.582,8.7,8.7,0,0,1-4.939-11.269,8.7,8.7,0,0,1,11.269-4.94,8.7,8.7,0,0,1,1.9,1.028,8.887,8.887,0,0,1,2.274,2.408l.148.229-.222.161a14.24,14.24,0,0,0-5.909,11.642Zm32.243,24.868a2.415,2.415,0,0,1,.355,1.28,2.54,2.54,0,0,1-2.55,2.528h-.021a2.54,2.54,0,0,1-2.206-1.292l-5.856-10.407,4.082-2.45Zm-6.982-11.643-4.045,2.43-1.307-2.321.3-.128a14.551,14.551,0,0,0,3.407-2.093l.259-.214Zm2.079-13.225a12.8,12.8,0,0,1-3.832,9.173,13.05,13.05,0,0,1-4.941,3.052,12.707,12.707,0,0,1-4.135.684,12.944,12.944,0,0,1-12.787-11.162,12.489,12.489,0,0,1-.119-1.746,12.882,12.882,0,0,1,12.856-12.908,12.878,12.878,0,0,1,4.893.955l.312.127-1.4,2.324-.225-.084a10.116,10.116,0,0,0-3.536-.641,10.244,10.244,0,0,0-6.146,2.061l.951,1.191a8.6,8.6,0,0,1,5.194-1.728,8.67,8.67,0,0,1,2.616.413l.349.11-1.368,2.28,1.308.788,1.444-2.406.249.157a8.759,8.759,0,0,1,4.1,7.365,8.6,8.6,0,0,1-1.727,5.2l1.191.952a10.184,10.184,0,0,0-1.979-14.266q-.393-.3-.811-.553l-.242-.151,1.393-2.321.248.154a12.829,12.829,0,0,1,6.144,10.987Z" transform="translate(866.31 -2558.437)" fill="#45a4fd"/>
                <path id="Trazado_742" data-name="Trazado 742" d="M-820.819,2602.021a8.711,8.711,0,0,1-8.7-8.7,8.594,8.594,0,0,1,1.727-5.2l-1.19-.951a10.216,10.216,0,0,0,1.995,14.311,10.219,10.219,0,0,0,12.316,0l-.951-1.191A8.6,8.6,0,0,1-820.819,2602.021Z" transform="translate(865.768 -2558.879)" fill="#45a4fd"/>
              </g>
            </g>
          </g>
          <path id="Trazado_3451" data-name="Trazado 3451" d="M-842.836,2611.346a5.553,5.553,0,0,1-5.546,5.546,5.546,5.546,0,0,1-5.556-5.537,5.546,5.546,0,0,1,5.536-5.556,5.529,5.529,0,0,1,2.336.511l.016.006a5.566,5.566,0,0,1,3.221,5.031Z" transform="translate(866.548 -2559.165)" fill="#45a4fd" opacity="0.12"/>
          <path id="Trazado_3452" data-name="Trazado 3452" d="M-837.48,2595.163c0,.3.011.612.031.94l.02.272-.27.035a9.674,9.674,0,0,1-1.194.077,8.384,8.384,0,0,1-3.1-.582,8.7,8.7,0,0,1-4.939-11.269,8.7,8.7,0,0,1,11.269-4.94,8.682,8.682,0,0,1,1.9,1.028,8.889,8.889,0,0,1,2.274,2.408l.148.229-.222.161a14.239,14.239,0,0,0-5.909,11.643Z" transform="translate(866.45 -2558.755)" fill="#45a4fd" opacity="0.12"/>
          <path id="Trazado_3453" data-name="Trazado 3453" d="M-809.96,2595.213a12.8,12.8,0,0,1-3.832,9.173,13.046,13.046,0,0,1-4.941,3.052,12.714,12.714,0,0,1-4.135.684,12.944,12.944,0,0,1-12.787-11.162,12.471,12.471,0,0,1-.119-1.746,12.882,12.882,0,0,1,12.856-12.908,12.887,12.887,0,0,1,4.893.955l.312.127-1.4,2.323-.225-.084a10.111,10.111,0,0,0-3.536-.641,10.245,10.245,0,0,0-6.146,2.061l.951,1.191a8.6,8.6,0,0,1,5.194-1.728,8.67,8.67,0,0,1,2.616.413l.349.11-1.368,2.28,1.308.788,1.444-2.406.249.156a8.76,8.76,0,0,1,4.1,7.365,8.6,8.6,0,0,1-1.727,5.195l1.19.952a10.185,10.185,0,0,0-1.979-14.267c-.262-.2-.533-.382-.811-.553l-.242-.151,1.393-2.321.248.154a12.829,12.829,0,0,1,6.144,10.987Z" transform="translate(866.269 -2558.804)" fill="#45a4fd" opacity="0.12"/>
          <path id="Trazado_3454" data-name="Trazado 3454" d="M-824.854,2565.218a3.446,3.446,0,0,1,3.446,3.446,3.446,3.446,0,0,1-3.446,3.446,3.387,3.387,0,0,1-2.029-.668,3.44,3.44,0,0,1-.754-4.805,3.438,3.438,0,0,1,2.784-1.414Z" transform="translate(866.154 -2558.542)" fill="#45a4fd" opacity="0.12"/>
          <path id="Trazado_3455" data-name="Trazado 3455" d="M-863.3,2568.9a3.446,3.446,0,0,1-3.446-3.446,3.446,3.446,0,0,1,3.446-3.446,3.446,3.446,0,0,1,3.446,3.446h0a3.447,3.447,0,0,1-3.443,3.447Z" transform="translate(866.745 -2558.492)" fill="#45a4fd" opacity="0.12"/>
          <path id="Trazado_3456" data-name="Trazado 3456" d="M-863.266,2605.277a1.342,1.342,0,0,1-1.342-1.341,1.342,1.342,0,0,1,1.341-1.341,1.34,1.34,0,0,1,1.341,1.341h0a1.343,1.343,0,0,1-1.337,1.342Z" transform="translate(866.712 -2559.115)" fill="#45a4fd" opacity="0.12"/>
          <path id="Trazado_3457" data-name="Trazado 3457" d="M-860.067,2624.5a1.342,1.342,0,0,1-1.378-1.3,1.341,1.341,0,0,1,1.3-1.376h.073a1.3,1.3,0,0,1,.956.409,1.287,1.287,0,0,1,.385.931,1.342,1.342,0,0,1-1.334,1.341Z" transform="translate(866.664 -2559.411)" fill="#45a4fd" opacity="0.12"/>
          <path id="Trazado_3458" data-name="Trazado 3458" d="M-833.366,2612.207a1.341,1.341,0,0,1,1.342,1.34,1.342,1.342,0,0,1-1.34,1.342,1.342,1.342,0,0,1-1.342-1.34h0a1.343,1.343,0,0,1,1.344-1.34Z" transform="translate(866.253 -2559.263)" fill="#45a4fd" opacity="0.12"/>
          <path id="Trazado_3459" data-name="Trazado 3459" d="M-804.737,2620.508a2.415,2.415,0,0,1,.355,1.28,2.54,2.54,0,0,1-2.55,2.529h-.021a2.541,2.541,0,0,1-2.206-1.293l-5.857-10.407,4.082-2.45Z" transform="translate(865.95 -2559.232)" fill="#45a4fd" opacity="0.12"/>
          <path id="Trazado_3460" data-name="Trazado 3460" d="M-811.752,2608.808l-4.045,2.43-1.307-2.321.3-.128a14.561,14.561,0,0,0,3.407-2.093l.259-.214Z" transform="translate(865.982 -2559.175)" fill="#45a4fd" opacity="0.12"/>
        </g>
      </g>
    </g>
  </g>
</svg>
