<svg xmlns="http://www.w3.org/2000/svg" width="63.713" height="67.885" viewBox="0 0 63.713 67.885">
  <g id="Campa침as_Publicitarias" data-name="Campa침as Publicitarias" transform="translate(-530.801 -208)">
    <rect id="Rect치ngulo_514" data-name="Rect치ngulo 514" width="3.36" height="10.047" transform="translate(564.292 227.602)" fill="#45a4fd" opacity="0.12" style="isolation: isolate"/>
    <path id="Trazado_3507" data-name="Trazado 3507" d="M763.482,278.826a.583.583,0,0,1,.582.582c0,.189,0,.7,0,1.4-.014,3.844-.024,7.486,0,8.091a.583.583,0,0,1-.581.612h-9.454a4.952,4.952,0,0,1-3.106-1.1l-.419-.339V280.31l4.07-4.605a7.833,7.833,0,0,0,1.96-5.185.055.055,0,0,1,.1-.027,5.763,5.763,0,0,1,.3,5.073l-.784,1.859a.994.994,0,0,0,.913,1.382Z" transform="translate(-180.863 -51.424)" fill="#45a4fd" opacity="0.12" style="isolation: isolate"/>
    <path id="Trazado_3508" data-name="Trazado 3508" d="M694.642,504.484c0,1.486-.985,2.585-3.726,4.093-2.74-1.508-3.725-2.607-3.725-4.093a1.7,1.7,0,0,1,1.24-1.8,1.482,1.482,0,0,1,.35-.042,1.373,1.373,0,0,1,1.252.8.994.994,0,0,0,1.784-.036,1.293,1.293,0,0,1,1.525-.694,1.682,1.682,0,0,1,1.3,1.772Z" transform="translate(-128.743 -242.553)" fill="#45a4fd" opacity="0.12" style="isolation: isolate"/>
    <path id="Trazado_3509" data-name="Trazado 3509" d="M602.221,396.68h2.4l-.4,2.426h-2.4Z" transform="translate(-58.464 -155.325)" fill="#45a4fd" opacity="0.12" style="isolation: isolate"/>
    <g id="Grupo_1753" data-name="Grupo 1753" transform="translate(530.801 208)">
      <g id="Grupo_1752" data-name="Grupo 1752">
        <path id="Trazado_3510" data-name="Trazado 3510" d="M587.058,208h-2.919a1,1,0,0,0,0,1.989h2.919a5.463,5.463,0,0,1,5.466,5.447v23.016a5.463,5.463,0,0,1-5.466,5.447h-3.31a1,1,0,0,0-.6.2l-6.074,4.647v-3.857a.994.994,0,0,0-.994-.994h-12.1a5.441,5.441,0,0,1-2.784-.759V231.976a6.068,6.068,0,0,0-2.682-5.032V215.436a5.463,5.463,0,0,1,5.466-5.447h13.936a1,1,0,0,0,0-1.989H563.971a7.454,7.454,0,0,0-7.456,7.436V226.07a6.112,6.112,0,0,0-1.418-.168H536.89a6.089,6.089,0,0,0-6.089,6.074v2.147a1,1,0,0,0,1.989,0v-2.147a4.1,4.1,0,0,1,4.1-4.085H555.1a4.1,4.1,0,0,1,4.1,4.085v11.56a.984.984,0,0,0,0,.264v6.327c0,.125-.008.249-.019.373h-2.051a4.614,4.614,0,0,0-4.535,3.775.982.982,0,0,0-.258.144l-4.449,3.435v-2.648a1,1,0,0,0-.994-.994h-10a4.1,4.1,0,0,1-4.1-4.085V240.091a1,1,0,0,0-1.989,0v10.036a6.089,6.089,0,0,0,6.089,6.074H545.9v3.677a1.01,1.01,0,0,0,1.6.787l5.018-3.874V267.98a4.61,4.61,0,0,0,4.61,4.6h6.1V274.9a1.01,1.01,0,0,0,1.6.787l4.025-3.108h1.189a4.61,4.61,0,0,0,4.611-4.6v-1.766a1,1,0,0,0-1.99,0v1.766a2.619,2.619,0,0,1-2.621,2.61h-1.528a1,1,0,0,0-.608.207l-2.692,2.078v-1.291a1,1,0,0,0-.994-.994h-7.1a2.619,2.619,0,0,1-2.621-2.61V255.1a2.618,2.618,0,0,1,2.621-2.61h12.92a2.619,2.619,0,0,1,2.621,2.61v4.882a1,1,0,0,0,1.99,0V255.1a4.61,4.61,0,0,0-4.611-4.6h-8.872c.008-.124.011-5.147.011-5.147a7.456,7.456,0,0,0,2.784.536h11.11v4.874a1.009,1.009,0,0,0,1.6.79l7.406-5.664h2.974a7.455,7.455,0,0,0,7.456-7.436V215.436A7.455,7.455,0,0,0,587.058,208Zm0,0" transform="translate(-530.801 -208)" fill="#45a4fd"/>
      </g>
      <path id="Trazado_3511" data-name="Trazado 3511" d="M732.921,249.021a2.073,2.073,0,0,0-2.55,1.98,5.839,5.839,0,0,1-1.463,3.868l-2.74,3.1a.992.992,0,0,0-.833-.453h-5.35a1,1,0,0,0-.994,1v12.036a1,1,0,0,0,.994.994h5.35a.994.994,0,0,0,.9-.581,6.951,6.951,0,0,0,3.615,1.019h9.454a2.6,2.6,0,0,0,2.568-2.695c-.03-.638,0-9.206,0-9.4a2.574,2.574,0,0,0-2.568-2.572L734.4,257.3l.2-.482a7.765,7.765,0,0,0-.409-6.834,2.026,2.026,0,0,0-1.269-.966Zm-8.579,20.532h-3.36V259.506h3.36Zm14.967-10.247a.583.583,0,0,1,.582.582c0,.189,0,.7,0,1.4-.014,3.844-.024,7.486,0,8.091a.583.583,0,0,1-.581.612h-9.454a4.953,4.953,0,0,1-3.106-1.1l-.418-.339v-7.761l4.07-4.605A7.833,7.833,0,0,0,732.36,251a.055.055,0,0,1,.1-.027,5.763,5.763,0,0,1,.3,5.073l-.784,1.859a.995.995,0,0,0,.913,1.382Zm0,0" transform="translate(-685.723 -241.672)" fill="#45a4fd"/>
      <path id="Trazado_3512" data-name="Trazado 3512" d="M574.342,362.031a.994.994,0,0,0,0,1.989h2.931l-.548,3.313a.994.994,0,0,0,.819,1.143,1.014,1.014,0,0,0,.164.013,1,1,0,0,0,.98-.832l.6-3.637h2.4l-.547,3.313a.994.994,0,0,0,.819,1.143.99.99,0,0,0,1.144-.819l.6-3.637H587.7a.995.995,0,0,0,0-1.99h-3.661l.4-2.426H587.7a.995.995,0,0,0,0-1.99h-2.931l.547-3.312a.995.995,0,0,0-1.962-.325l-.6,3.637h-2.4l.548-3.312a.995.995,0,0,0-1.963-.325l-.6,3.637h-3.991a.995.995,0,0,0,0,1.99H578l-.4,2.426Zm5.678-2.426h2.4l-.4,2.426h-2.4Zm0,0" transform="translate(-565.826 -327.487)" fill="#45a4fd"/>
      <path id="Trazado_3513" data-name="Trazado 3513" d="M689.641,485.144a3.346,3.346,0,0,0-2.943-.662,3.7,3.7,0,0,0-2.759,3.734,4.887,4.887,0,0,0,1.469,3.5,14.591,14.591,0,0,0,3.779,2.606.993.993,0,0,0,.931,0c3.15-1.67,5.249-3.347,5.249-6.1a3.675,3.675,0,0,0-2.857-3.714,3.335,3.335,0,0,0-2.869.642Zm3.737,3.072c0,1.486-.985,2.585-3.726,4.093-2.739-1.508-3.725-2.607-3.725-4.093a1.7,1.7,0,0,1,1.24-1.8,1.479,1.479,0,0,1,.35-.042,1.373,1.373,0,0,1,1.252.8.994.994,0,0,0,1.784-.036,1.293,1.293,0,0,1,1.525-.694,1.682,1.682,0,0,1,1.3,1.772Zm0,0" transform="translate(-656.866 -435.523)" fill="#45a4fd"/>
    </g>
  </g>
</svg>
