<svg xmlns="http://www.w3.org/2000/svg" width="69.814" height="69.498" viewBox="0 0 69.814 69.498">
  <g id="consultorias_tecnologicas" data-name="consultorias tecnologicas" transform="translate(0 -1)">
    <g id="Grupo_1649" data-name="Grupo 1649" transform="translate(0 1)">
      <g id="Grupo_1333" data-name="Grupo 1333">
        <path id="Trazado_3435" data-name="Trazado 3435" d="M-230.105,2196.371v-2.057a5,5,0,0,1,5.02-4.985,5,5,0,0,1,4.985,4.985v2.057a5,5,0,0,1-5.021,4.984,5,5,0,0,1-4.984-4.984Z" transform="translate(279.918 -2145.176)" fill="#616161" opacity="0.12"/>
        <path id="Trazado_3436" data-name="Trazado 3436" d="M-261.786,2188.013v-2.056a5,5,0,0,1,5.02-4.985,5,5,0,0,1,4.985,4.985v2.056A5,5,0,0,1-256.8,2193,5,5,0,0,1-261.786,2188.013Z" transform="translate(279.375 -2145.319)" fill="#616161" opacity="0.12"/>
        <path id="Trazado_3437" data-name="Trazado 3437" d="M-253.251,2194.769l-3.56,6.17-3.56-6.17,1.353-.47h4.406Z" transform="translate(279.4 -2145.09)" fill="#616161" opacity="0.12"/>
        <path id="Trazado_3438" data-name="Trazado 3438" d="M-268.117,2202.807a7.473,7.473,0,0,1,5.021-7.057l1.416-.491,4.355,7.558a.757.757,0,0,0,1.033.279.765.765,0,0,0,.279-.279l4.355-7.558,1.415.491a7.475,7.475,0,0,1,5.021,7.057v3.264h-22.895Z" transform="translate(279.267 -2145.075)" fill="#616161" opacity="0.12"/>
        <path id="Trazado_3439" data-name="Trazado 3439" d="M-236.574,2207.75a8.915,8.915,0,0,0-.65,3.35v3.264h-41.542v-6.988h42.343Z" transform="translate(279.084 -2144.866)" fill="#616161" opacity="0.12"/>
        <path id="Trazado_3440" data-name="Trazado 3440" d="M-213.542,2214.442h-22.894v-3.264a7.475,7.475,0,0,1,5.021-7.056l4.223-1.467h4.406l4.223,1.467a7.475,7.475,0,0,1,5.021,7.056Z" transform="translate(279.81 -2144.948)" fill="#616161" opacity="0.12"/>
        <path id="Trazado_3441" data-name="Trazado 3441" d="M-213.28,2175.677a4.734,4.734,0,0,1-4.728,4.727h-14.123a.757.757,0,0,0-.757.757v5.03l-5.564-5.564a.75.75,0,0,0-.535-.222h-8.364a4.733,4.733,0,0,1-4.729-4.727v-14.261a4.733,4.733,0,0,1,4.729-4.728h29.342a4.734,4.734,0,0,1,4.728,4.728Z" transform="translate(279.542 -2145.736)" fill="#616161" opacity="0.12"/>
        <path id="Trazado_3442" data-name="Trazado 3442" d="M-249.647,2170.743c.012-.029.02-.059.033-.089-.051-1.708-.075-3.433-.043-5.133-.036-.889-.072-1.778-.087-2.667a5.613,5.613,0,0,1,.132-1.316,9.762,9.762,0,0,1,.172-2.34c.926-4.358,4.56-6.138,8.575-5.69a4.673,4.673,0,0,0-4.51-3.507H-274.4a4.684,4.684,0,0,0-4.678,4.677v14.107a4.684,4.684,0,0,0,4.678,4.677h4.2a.739.739,0,0,1,.529.219l5.5,5.506v-4.976a.75.75,0,0,1,.749-.748h13.2A6.531,6.531,0,0,1-249.647,2170.743Z" transform="translate(279.079 -2145.85)" fill="#616161" opacity="0.12"/>
        <g id="Grupo_1047" data-name="Grupo 1047" transform="translate(0.832)">
          <g id="Grupo_975" data-name="Grupo 975">
            <g id="Grupo_968" data-name="Grupo 968">
              <path id="Trazado_734" data-name="Trazado 734" d="M-215.321,2201.092l-3.273-1.136.387-.305a6.485,6.485,0,0,0,2.479-5.108v-2.06a6.515,6.515,0,0,0-6.516-6.516,6.515,6.515,0,0,0-6.516,6.516v2.056a6.488,6.488,0,0,0,2.48,5.108l.388.305-3.274,1.137a8.952,8.952,0,0,0-4.272,3.139l-.081.11h-7.99v-3.261a8.991,8.991,0,0,0-6.038-8.487l-3.274-1.136.387-.306a6.483,6.483,0,0,0,2.48-5.109v-2.057a6.516,6.516,0,0,0-6.516-6.516,6.516,6.516,0,0,0-6.516,6.516h0v2.057a6.485,6.485,0,0,0,2.479,5.109l.387.306-3.273,1.136a8.989,8.989,0,0,0-6.039,8.487v3.264H-277.5a.757.757,0,0,0-.757.757v8.5a.757.757,0,0,0,.757.756h42.783a1.018,1.018,0,0,0,.1-.008h.07a.737.737,0,0,0,.1.008h24.411a.758.758,0,0,0,.758-.756v-4.021A8.992,8.992,0,0,0-215.321,2201.092Zm-11.925-6.553v-2.056a5,5,0,0,1,5.02-4.985,5,5,0,0,1,4.985,4.985v2.056a5,5,0,0,1-5.021,4.985,5,5,0,0,1-4.984-4.985Zm-32.224-8.5v-2.056a5,5,0,0,1,5.02-4.985,5,5,0,0,1,4.985,4.985v2.056a5,5,0,0,1-5.021,4.984A5,5,0,0,1-259.469,2186.038Zm8.559,6.986-3.56,6.169-3.56-6.169,1.353-.47h4.406Zm-15,8.053a7.474,7.474,0,0,1,5.021-7.057l1.416-.491,4.355,7.558a.757.757,0,0,0,1.033.279.767.767,0,0,0,.279-.279l4.355-7.558,1.415.491a7.476,7.476,0,0,1,5.021,7.057v3.264h-22.895Zm31.36,5.151a8.921,8.921,0,0,0-.65,3.351v3.264H-276.74v-6.988H-234.4Zm23.757,6.611h-22.894v-3.264a7.475,7.475,0,0,1,5.021-7.057l4.223-1.467h4.406l4.223,1.467a7.475,7.475,0,0,1,5.021,7.057Z" transform="translate(278.261 -2145.379)" fill="#616161"/>
              <path id="Trazado_3443" data-name="Trazado 3443" d="M-215.525,2153.324h-20.906v-1.163a6.249,6.249,0,0,0-6.242-6.242h-29.344a6.248,6.248,0,0,0-6.241,6.242v2.275a.757.757,0,0,0,.757.757.757.757,0,0,0,.757-.757v-2.275a4.732,4.732,0,0,1,4.728-4.728h29.344a4.732,4.732,0,0,1,4.728,4.728v1.163h-6.917a6.249,6.249,0,0,0-6.241,6.242v11.584h-11.042a.757.757,0,0,0-.757.757v5.03l-5.564-5.565a.75.75,0,0,0-.535-.222h-3.017a4.733,4.733,0,0,1-4.728-4.728v-7.2a.758.758,0,0,0-.757-.758.758.758,0,0,0-.757.758v7.2a6.25,6.25,0,0,0,6.241,6.243h2.7l6.635,6.634a.751.751,0,0,0,.533.22.684.684,0,0,0,.292-.056.757.757,0,0,0,.467-.7v-6.1h10.278v1.164a6.249,6.249,0,0,0,6.241,6.241h8.052l6.634,6.635a.757.757,0,0,0,1.07,0,.759.759,0,0,0,.222-.535v-6.1h13.367a6.25,6.25,0,0,0,6.242-6.241v-14.257A6.249,6.249,0,0,0-215.525,2153.324Zm4.728,20.5a4.733,4.733,0,0,1-4.728,4.727h-14.123a.757.757,0,0,0-.757.757v5.03l-5.564-5.565a.752.752,0,0,0-.535-.222h-8.364a4.733,4.733,0,0,1-4.729-4.727v-14.261a4.733,4.733,0,0,1,4.729-4.728h29.342a4.734,4.734,0,0,1,4.728,4.729Z" transform="translate(278.261 -2145.92)" fill="#616161"/>
            </g>
          </g>
        </g>
      </g>
    </g>
  </g>
</svg>
