<svg id="Transformación_en_la_Nube" data-name="Transformación en la Nube" xmlns="http://www.w3.org/2000/svg" width="66.65" height="60.699" viewBox="0 0 66.65 60.699">
  <ellipse id="Elipse_503" data-name="Elipse 503" cx="14" cy="14.5" rx="14" ry="14.5" transform="translate(16.203 31.699)" fill="#2a2a2a" opacity="0.21"/>
  <g id="Grupo_1336" data-name="Grupo 1336">
    <path id="Trazado_3461" data-name="Trazado 3461" d="M-223.962,2580.825a.879.879,0,0,1-.7-.684,15,15,0,0,0-8.235-10.513c-7.754-3.816-17.332-1-21.394,6.279a.939.939,0,0,1-.855.458l-.282-.017c-.154-.01-.312-.02-.473-.02-6.268.01-11.562,4.372-12.392,10.208a.871.871,0,0,1-.635.706,9.745,9.745,0,0,0-7.284,9.213c-.009,5.329,4.579,9.658,10.252,9.668h4.171c-.036-.413-.067-.827-.067-1.249,0-8.419,7.264-15.243,16.224-15.243s16.224,6.824,16.224,15.243c0,.422-.031.836-.067,1.249h2.843a14.221,14.221,0,0,0,8.325-2.834,12.721,12.721,0,0,0,4.754-7.231C-211.952,2589.152-216.61,2582.331-223.962,2580.825Z" transform="translate(276.215 -2564.242)" fill="#2a2a2a" opacity="0.12"/>
    <g id="Grupo_1048" data-name="Grupo 1048" transform="translate(0.242)">
      <g id="Grupo_972" data-name="Grupo 972">
        <g id="Grupo_971" data-name="Grupo 971">
          <path id="Trazado_743" data-name="Trazado 743" d="M-220.967,2578.459l-.123-.033-.027-.126a17.6,17.6,0,0,0-21.038-13.674,17.646,17.646,0,0,0-11.389,8.614l-.062.107h-.286a14.42,14.42,0,0,0-14.033,12.036l-.022.121-.112.042a12.472,12.472,0,0,0-7.173,15.873,12.066,12.066,0,0,0,11.311,8.124h.9v-1.862h-.9a10.381,10.381,0,0,1-10.218-10.535,10.486,10.486,0,0,1,7.26-10.042.924.924,0,0,0,.633-.77,12.6,12.6,0,0,1,12.351-11.125c.161,0,.318.011.472.021l.281.018a.92.92,0,0,0,.852-.5,15.593,15.593,0,0,1,21.323-6.843,16.2,16.2,0,0,1,8.207,11.457.917.917,0,0,0,.7.745,13.954,13.954,0,0,1,10.372,16.6,14.021,14.021,0,0,1-4.738,7.881,13.412,13.412,0,0,1-8.3,3.089v1.861a15.618,15.618,0,0,0,15.161-16.039,15.736,15.736,0,0,0-11.413-15.041Z" transform="translate(275.969 -2564.181)" fill="#2a2a2a"/>
          <path id="Trazado_744" data-name="Trazado 744" d="M-234.33,2592.326l-1.2,1.2a13.86,13.86,0,0,1-.247,19.6,13.859,13.859,0,0,1-19.6-.247,13.858,13.858,0,0,1,.247-19.6,13.858,13.858,0,0,1,7.4-3.748l.483-.081-2.54,3.416,1.371,1.018,3.639-4.9a.853.853,0,0,0-.175-1.194l-4.9-3.639-1.019,1.371,3.074,2.284-.445.082a15.543,15.543,0,0,0-12.5,18.084,15.543,15.543,0,0,0,18.084,12.495,15.542,15.542,0,0,0,12.495-18.083,15.538,15.538,0,0,0-4.166-8.061Z" transform="translate(277.501 -2560.774)" fill="#2a2a2a"/>
        </g>
      </g>
    </g>
  </g>
</svg>
