<svg xmlns="http://www.w3.org/2000/svg" width="18.615" height="15.539" viewBox="0 0 18.615 15.539">
  <g id="tw_rostros" data-name="tw rostros" transform="translate(9939.363 18018.65)">
    <g id="Grupo_2078" data-name="Grupo 2078" transform="translate(-9947 -18027)">
      <path id="Trazado_3555" data-name="Trazado 3555" d="M4712.334,1202.269a8.589,8.589,0,0,0,4.587-1.094c.185-.109.473-.17.439-.448s-.333-.247-.538-.315a3.885,3.885,0,0,1-2.434-2.071c-.1-.218-.212-.439.188-.449.163,0,.354.03.4-.209.046-.266-.181-.323-.336-.426a4,4,0,0,1-1.839-3.22c.459-.085.8.342,1.3.193-1.153-1.519-1.749-3.124-.685-5.111.259.32.449.6.684.837a10.977,10.977,0,0,0,6.74,3.237c.415.044.6.044.558-.49a3.665,3.665,0,0,1,2.06-3.777,3.7,3.7,0,0,1,4.284.412,1.034,1.034,0,0,0,1.091.183c.555-.2,1.1-.422,1.709-.659-.066.756-.724,1.167-1.033,1.781.547.22.924-.227,1.442-.14a3.186,3.186,0,0,1-1.078,1.273,1.583,1.583,0,0,0-.647,1.442,11.109,11.109,0,0,1-12.157,10.692A10.9,10.9,0,0,1,4712.334,1202.269Z" transform="translate(-4704.697 -1180.078)" fill="#fff"/>
    </g>
  </g>
</svg>
