<svg xmlns="http://www.w3.org/2000/svg" width="34" height="33" viewBox="0 0 34 33">
  <g id="tw." transform="translate(0.149)">
    <rect id="Rectángulo_733" data-name="Rectángulo 733" width="34" height="33" transform="translate(-0.15)" fill="#45a4fd"/>
    <path id="Trazado_3555" data-name="Trazado 3555" d="M4712.334,1207.8a12.02,12.02,0,0,0,6.42-1.531c.258-.152.662-.238.615-.627s-.465-.346-.752-.44a5.437,5.437,0,0,1-3.406-2.9c-.145-.305-.3-.614.264-.629.228-.006.5.041.554-.292.065-.372-.252-.451-.47-.6a5.6,5.6,0,0,1-2.575-4.507c.644-.119,1.118.479,1.821.27-1.614-2.126-2.448-4.372-.958-7.153.363.448.627.842.957,1.171a15.363,15.363,0,0,0,9.433,4.531c.581.062.84.061.781-.686a5.128,5.128,0,0,1,2.883-5.287,5.182,5.182,0,0,1,6,.576,1.445,1.445,0,0,0,1.526.257c.777-.275,1.542-.591,2.393-.922-.092,1.058-1.013,1.633-1.445,2.492.765.308,1.293-.318,2.018-.2a4.455,4.455,0,0,1-1.508,1.781,2.216,2.216,0,0,0-.905,2.018,15.546,15.546,0,0,1-17.013,14.963A15.262,15.262,0,0,1,4712.334,1207.8Z" transform="translate(-4708.565 -1183.181)" fill="#fff"/>
  </g>
</svg>
